{"glyphs":{"0":{"ha":419,"x_min":57,"x_max":360,"o":"m 350 575 q 344 333 360 435 q 300 165 328 232 q 240 64 272 99 q 186 21 208 29 q 138 20 154 13 q 104 56 121 28 q 80 137 89 86 q 67 246 71 188 q 63 363 63 304 q 65 468 63 422 q 72 561 69 524 q 77 629 74 599 q 84 690 81 660 q 94 760 88 719 q 65 779 72 763 q 57 811 57 796 q 215 770 157 803 q 302 699 272 738 q 340 624 332 660 q 350 575 349 589 m 99 329 q 105 242 100 286 q 119 163 110 199 q 142 106 128 128 q 179 86 157 85 q 220 115 200 83 q 256 190 240 146 q 284 283 272 235 q 301 361 296 331 q 308 440 307 400 q 306 513 308 479 q 297 576 303 547 q 286 621 292 604 q 233 703 271 667 q 136 744 196 739 q 130 702 133 732 q 122 633 126 672 q 113 550 118 594 q 105 464 108 506 q 99 387 101 422 q 99 329 97 351 z "},"1":{"ha":375,"x_min":135,"x_max":240,"o":"m 151 819 l 196 819 q 194 637 190 732 q 207 443 199 542 q 225 245 215 344 q 240 49 235 146 q 231 37 236 38 q 215 36 225 36 q 183 49 189 29 q 177 233 183 132 q 163 430 171 333 q 149 608 156 526 q 139 736 142 690 q 138 763 139 747 q 135 793 136 779 q 138 815 135 807 q 151 819 140 824 z "},"2":{"ha":572,"x_min":-43,"x_max":501,"o":"m 265 804 q 283 744 283 789 q 270 637 282 700 q 239 498 258 574 q 199 344 219 422 q 159 191 178 265 q 131 56 140 117 q 217 105 168 74 q 316 172 267 136 q 409 245 365 208 q 481 311 453 282 q 494 305 490 311 q 500 289 499 299 q 501 268 501 279 q 500 247 500 257 q 312 107 408 174 q 111 -21 215 40 q 88 -26 96 -28 q 74 -14 81 -25 q 99 131 82 51 q 138 291 117 210 q 178 450 158 372 q 212 591 199 528 q 227 697 225 654 q 214 750 229 739 q 183 740 211 760 q 118 684 154 721 q 49 601 82 647 q 4 508 15 554 q -8 506 -4 506 q -15 506 -11 506 q -22 508 -18 507 q -35 508 -26 508 q -17 575 -43 533 q 49 661 10 617 q 128 744 88 706 q 189 801 168 782 q 224 818 207 813 q 265 804 242 824 z "},"3":{"ha":564,"x_min":39,"x_max":528,"o":"m 338 735 q 340 690 343 713 q 328 648 336 668 q 306 609 319 628 q 279 575 293 590 q 201 506 246 538 q 288 529 243 525 q 372 523 332 533 q 447 489 413 513 q 500 428 481 465 q 521 307 528 374 q 477 177 514 240 q 376 63 440 114 q 225 -11 311 11 q 166 -24 196 -19 q 113 -30 136 -28 q 76 -32 90 -32 q 61 -29 61 -32 l 79 0 q 247 40 175 7 q 368 119 319 72 q 440 219 417 165 q 463 322 464 272 q 434 413 461 372 q 353 471 407 453 q 273 481 313 485 q 198 463 233 476 q 133 433 163 450 q 86 406 104 417 q 76 417 78 403 q 79 446 74 431 q 167 511 125 475 q 238 583 208 547 q 281 653 267 619 q 288 711 296 688 q 258 746 279 735 q 205 749 236 757 q 136 712 174 742 q 60 625 99 682 l 49 631 q 40 639 39 636 q 126 744 78 706 q 217 794 174 783 q 294 790 261 806 q 338 735 328 775 z "},"4":{"ha":456,"x_min":18,"x_max":417,"o":"m 331 831 q 331 783 332 815 q 327 703 329 750 q 322 600 325 657 q 317 481 318 543 q 363 490 344 485 q 393 490 381 494 q 410 472 404 485 q 408 447 417 458 q 355 435 379 444 q 311 419 331 426 q 308 299 308 369 q 306 160 307 228 q 303 40 306 93 q 293 -29 300 -12 q 282 -33 290 -32 q 264 -33 274 -33 q 247 -31 254 -32 q 240 -26 240 -29 q 249 38 244 -7 q 258 142 254 82 q 265 272 263 201 q 268 411 268 342 q 213 396 249 407 q 140 374 178 385 q 69 356 103 364 q 18 350 35 347 q 39 424 26 386 q 65 499 51 461 q 90 574 78 536 q 108 653 101 613 q 125 672 113 665 q 165 672 138 679 q 154 626 167 663 q 126 546 142 589 q 94 463 110 503 q 72 406 78 422 q 174 431 125 417 q 269 464 222 446 q 278 590 274 528 q 285 701 282 651 q 288 783 288 750 q 285 821 289 815 q 288 828 285 824 q 297 836 292 833 q 311 838 303 839 q 331 831 319 838 z "},"5":{"ha":579,"x_min":68,"x_max":538,"o":"m 464 794 q 473 783 468 790 q 480 767 478 775 q 482 752 482 758 q 476 744 482 746 q 399 740 438 746 q 323 724 361 733 q 247 703 285 714 q 169 686 208 693 q 157 643 161 671 q 153 588 153 615 q 156 538 153 560 q 164 513 160 517 q 248 494 206 506 q 330 467 290 483 q 403 433 369 451 q 463 392 438 414 q 524 304 510 350 q 530 217 538 258 q 499 140 522 175 q 449 85 475 106 q 369 44 415 60 q 273 25 324 28 q 170 33 222 22 q 72 72 118 44 q 74 82 68 76 q 90 92 81 88 l 115 103 q 217 72 161 79 q 324 77 272 65 q 417 119 376 89 q 471 201 457 150 q 470 285 483 249 q 426 351 457 322 q 355 399 396 379 q 273 435 314 419 q 196 460 232 450 q 139 479 160 471 q 110 538 107 492 q 118 661 113 585 q 105 666 110 665 q 97 667 100 667 q 93 670 94 668 q 89 681 92 672 q 90 715 85 703 q 100 728 94 726 q 190 747 147 735 q 275 769 232 758 q 364 788 318 781 q 464 794 410 796 z "},"6":{"ha":492,"x_min":47,"x_max":472,"o":"m 178 788 q 123 633 140 711 q 102 482 106 556 q 105 343 99 408 q 122 226 111 278 q 143 140 132 175 q 160 94 154 106 q 182 167 168 129 q 214 239 196 206 q 251 298 232 272 q 292 336 271 324 q 328 355 304 347 q 377 363 351 363 q 426 356 403 364 q 461 329 450 347 q 469 285 472 313 q 450 224 465 257 q 409 157 435 192 q 350 92 383 122 q 278 41 317 63 q 196 14 239 19 q 197 -8 193 4 q 197 -22 200 -19 q 164 -20 175 -25 q 149 -8 153 -15 q 144 -1 146 -3 q 143 6 143 1 q 143 16 143 10 q 146 36 143 22 q 100 123 117 71 q 75 226 83 175 q 67 542 47 400 q 135 806 86 683 q 153 806 146 808 q 167 800 161 804 q 178 788 172 794 m 201 58 q 292 94 246 61 q 372 167 338 126 q 423 246 407 208 q 425 294 439 283 q 344 306 383 326 q 275 242 306 286 q 225 144 244 197 q 201 58 206 92 z "},"7":{"ha":376,"x_min":-14,"x_max":339,"o":"m 325 860 q 338 834 336 865 q 335 747 339 803 q 322 618 331 692 q 305 466 314 544 q 288 311 296 388 q 278 174 281 235 q 276 106 274 133 q 278 57 278 78 q 256 57 272 51 q 236 79 239 63 q 238 263 232 174 q 253 441 243 353 q 272 618 263 529 q 283 803 281 707 q 237 800 272 807 q 158 783 201 793 q 72 763 114 772 q 10 756 31 754 q -6 764 0 757 q -14 796 -11 771 q 65 815 22 806 q 152 832 107 824 q 241 847 197 840 q 325 860 285 854 z "},"8":{"ha":400,"x_min":54,"x_max":332,"o":"m 293 733 q 319 721 306 729 q 328 683 332 713 q 304 606 315 640 q 281 539 293 571 q 256 476 269 507 q 228 413 243 446 q 278 320 258 376 q 301 206 297 264 q 290 97 304 147 q 239 24 275 46 q 199 11 213 10 q 168 29 185 13 q 143 78 151 47 q 133 144 135 108 q 134 217 131 179 q 143 290 138 256 q 151 321 146 303 q 163 356 156 339 q 178 397 169 375 q 146 443 168 418 q 103 499 124 468 q 68 566 82 529 q 60 647 54 603 q 73 692 58 669 q 99 724 88 714 q 182 755 132 751 q 293 733 232 758 m 200 449 q 221 499 206 465 q 251 569 236 533 q 274 635 265 606 q 274 671 282 664 q 222 696 251 686 q 168 699 192 706 q 110 647 121 679 q 110 578 99 614 q 147 508 121 543 q 200 449 172 474 m 221 71 q 253 112 244 75 q 260 197 263 149 q 244 292 257 244 q 211 364 231 339 q 193 309 201 342 q 180 242 185 276 q 174 173 175 207 q 177 114 172 139 q 192 76 182 89 q 221 71 203 64 z "},"9":{"ha":413,"x_min":39,"x_max":353,"o":"m 350 819 q 349 794 353 824 q 338 720 344 764 q 323 628 331 676 q 311 544 315 579 q 308 502 311 540 q 301 407 304 464 q 292 283 297 350 q 284 155 288 217 q 279 45 281 93 q 279 -22 278 -3 q 257 -24 263 -25 q 235 -15 251 -24 q 242 158 238 78 q 253 317 247 238 q 265 478 258 396 q 279 660 271 561 q 220 614 253 635 q 155 584 188 593 q 94 581 122 575 q 50 615 67 586 q 60 683 39 640 q 125 763 82 725 q 227 820 168 800 q 350 819 286 840 m 101 640 q 143 624 114 617 q 204 656 172 632 q 263 714 236 679 q 299 781 290 749 q 213 767 253 783 q 145 726 174 750 q 104 678 117 703 q 101 640 92 653 z "}," ":{"ha":222,"x_min":0,"x_max":0,"o":""},"b":{"ha":376,"x_min":-28,"x_max":325,"o":"m -24 892 q -13 895 -19 892 q 0 897 -7 899 q 13 885 7 896 q 21 846 18 874 q 26 761 24 811 q 33 653 29 711 q 40 533 36 596 q 49 412 44 471 q 56 302 53 353 q 63 215 60 251 q 79 260 67 232 q 110 320 92 289 q 154 380 129 351 q 208 424 179 408 q 249 434 232 433 q 277 429 265 435 q 297 415 289 424 q 308 400 304 407 q 320 307 325 360 q 294 202 315 254 q 235 107 272 150 q 147 44 197 64 q 107 33 119 33 q 82 32 94 32 q 83 4 85 11 q 79 -4 82 -3 q 61 -10 74 -10 q 36 -8 49 -11 q 21 201 28 100 q 15 290 18 244 q 8 379 11 336 q 1 460 4 422 q -3 528 -1 499 q -9 644 -4 581 q -18 763 -14 708 q -25 856 -22 818 q -24 892 -28 893 m 210 368 q 169 329 190 357 q 128 262 147 301 q 97 175 110 222 q 81 81 83 128 q 138 88 108 74 q 192 129 167 103 q 237 190 217 156 q 269 259 257 225 q 282 323 281 293 q 271 371 283 353 q 242 384 261 389 q 210 368 222 379 z "},"C":{"ha":521,"x_min":22,"x_max":586,"o":"m 494 931 q 448 918 483 926 q 364 883 413 910 q 262 806 315 857 q 163 668 208 756 q 133 585 147 636 q 107 485 118 535 q 90 400 96 436 q 86 364 83 364 q 85 211 76 269 q 114 119 94 153 q 160 73 133 86 q 211 58 186 60 q 256 60 236 56 q 282 65 276 65 q 359 110 322 82 q 428 173 396 138 q 486 250 460 208 q 533 336 513 292 q 548 350 539 343 q 565 362 557 357 q 580 367 574 367 q 586 363 586 368 q 520 224 563 286 q 428 114 478 161 q 328 36 379 67 q 236 -7 278 6 q 124 16 176 -18 q 42 144 72 50 q 27 256 32 194 q 32 379 22 318 q 75 597 40 497 q 163 774 110 697 q 282 901 215 851 q 421 969 349 951 q 442 967 426 969 q 472 958 457 964 q 494 946 486 953 q 494 931 503 939 z "},"c":{"ha":332,"x_min":-1,"x_max":396,"o":"m 232 407 q 219 390 233 399 q 182 366 204 382 q 133 324 160 350 q 86 254 107 297 q 54 172 64 207 q 58 90 44 138 q 70 73 63 81 q 93 64 78 65 q 147 79 124 69 q 192 103 171 89 q 232 133 213 117 q 272 165 251 149 q 323 216 303 194 q 356 252 343 238 q 377 274 368 267 q 396 278 386 281 q 365 225 390 265 q 298 140 339 185 q 203 55 257 94 q 86 6 149 15 q 45 11 61 7 q 15 44 29 15 q 3 128 -1 79 q 24 226 7 178 q 65 317 40 275 q 114 378 90 358 q 176 407 147 401 q 232 407 204 413 z "},"D":{"ha":853,"x_min":35,"x_max":789,"o":"m 247 960 q 259 942 256 951 q 263 921 263 932 q 264 895 264 910 q 265 861 264 881 q 421 782 338 822 q 577 695 504 742 q 704 593 650 649 q 775 469 758 538 q 762 308 789 385 q 676 170 735 232 q 535 66 618 108 q 354 6 451 24 q 287 1 319 -1 q 227 16 254 4 q 181 49 200 28 q 153 97 161 69 q 158 126 151 114 q 171 142 164 138 q 182 146 178 147 q 181 133 186 144 q 192 87 181 104 q 219 60 203 69 q 254 45 236 50 q 285 38 272 40 q 272 145 278 81 q 260 284 267 210 q 249 437 254 358 q 238 588 243 515 q 226 722 232 661 q 214 819 219 782 q 154 848 176 836 q 116 869 132 860 q 85 885 100 878 q 46 899 69 892 q 40 921 35 913 q 47 944 44 929 q 103 928 82 936 q 138 913 124 921 q 167 899 153 906 q 207 888 182 893 q 206 906 207 900 q 205 917 206 913 q 203 924 204 921 q 203 935 203 928 q 247 960 210 967 m 296 472 q 302 412 299 449 q 309 333 306 375 q 317 246 313 290 q 324 163 321 201 q 329 93 326 124 q 333 49 332 63 q 420 60 365 44 q 534 112 475 75 q 645 207 593 149 q 725 349 697 265 q 718 464 735 413 q 667 556 701 515 q 585 630 633 597 q 483 691 536 663 q 374 744 429 719 q 269 793 318 768 q 272 753 269 781 q 278 690 275 725 q 283 618 281 656 q 289 549 286 581 q 294 496 292 517 q 296 472 296 475 z "},"d":{"ha":433,"x_min":-31,"x_max":490,"o":"m 490 731 q 481 678 486 706 q 469 625 475 650 q 458 582 463 600 q 453 560 454 564 q 431 499 444 536 q 398 420 417 461 q 356 338 379 379 q 307 268 332 297 q 312 198 307 247 q 324 92 317 149 q 337 -20 331 35 q 344 -106 343 -75 q 332 -103 338 -112 q 315 -69 326 -93 q 302 -3 307 -33 q 293 59 297 28 q 284 125 289 90 q 269 204 279 160 q 206 128 243 171 q 130 53 169 86 q 52 8 90 21 q -14 19 14 -6 q -28 72 -31 42 q -12 133 -26 101 q 26 194 3 164 q 72 251 49 225 q 117 297 96 278 q 147 325 138 317 q 180 345 167 338 q 203 358 193 353 q 225 365 214 363 q 253 365 236 367 q 249 442 250 397 q 249 531 249 486 q 252 615 250 576 q 258 675 254 654 q 272 739 261 706 q 298 803 282 772 q 333 859 314 835 q 376 894 353 883 q 423 899 399 904 q 471 864 447 893 q 490 805 490 840 q 490 731 490 769 m 307 360 q 349 419 332 388 q 386 493 365 450 q 419 589 404 531 q 439 703 433 647 q 439 801 444 760 q 411 846 433 843 q 375 831 392 849 q 344 788 358 814 q 321 733 331 763 q 307 682 311 704 q 299 632 301 654 q 297 585 297 610 q 294 533 296 561 q 289 463 293 504 q 291 421 289 442 q 297 385 293 400 q 303 363 300 371 q 307 360 306 356 m 106 231 q 51 159 68 192 q 22 99 33 126 q 22 85 22 94 q 24 68 22 76 q 33 53 26 60 q 53 50 39 47 q 76 61 67 56 q 92 73 85 67 q 109 86 100 79 q 132 104 118 93 q 180 151 151 125 q 230 207 208 178 q 258 267 251 236 q 240 326 265 297 q 220 324 231 326 q 194 310 210 321 q 158 281 179 300 q 106 231 136 263 z "},"B":{"ha":681,"x_min":-56,"x_max":699,"o":"m 639 501 q 692 434 685 476 q 678 344 699 392 q 619 246 658 296 q 535 156 581 196 q 519 142 529 150 q 500 127 510 135 q 481 113 490 119 q 468 103 472 107 q 333 24 401 57 q 188 -36 265 -8 q 126 -39 153 -43 q 83 -25 100 -35 q 57 -3 65 -15 q 50 19 49 10 q 101 12 83 13 q 128 13 118 11 q 142 19 138 15 q 153 25 146 22 q 154 82 154 57 q 155 128 154 107 q 156 168 156 149 q 158 208 157 188 q 155 313 157 267 q 153 389 153 358 q 98 365 115 374 q 72 351 81 356 q 62 347 64 347 q 54 350 60 347 q 47 360 49 353 q 46 376 46 368 q 47 399 46 386 q 65 410 57 406 q 84 421 74 415 q 110 434 94 426 q 149 456 125 442 q 147 542 147 504 q 144 615 146 579 q 138 689 142 650 q 131 778 135 728 q 111 776 131 783 q 67 753 92 768 q 17 719 42 739 q -18 681 -7 700 q -34 657 -29 668 q -42 638 -39 646 q -48 630 -46 631 q -56 639 -50 629 q -35 706 -53 675 q 10 762 -17 738 q 67 803 36 786 q 128 832 99 821 q 128 856 129 847 q 129 871 126 864 q 150 885 136 872 q 169 899 164 899 q 174 883 172 890 q 176 869 175 875 q 179 857 178 863 q 261 884 215 878 q 349 885 307 890 q 424 866 392 881 q 468 832 457 851 q 488 748 496 794 q 453 657 479 701 q 392 575 428 613 q 332 517 357 538 q 419 529 375 525 q 505 531 464 533 q 581 522 546 529 q 639 501 615 515 m 183 797 q 185 635 178 710 q 194 479 192 560 q 268 519 231 494 q 339 579 306 544 q 397 657 372 614 q 433 753 422 700 q 416 798 438 779 q 358 823 394 817 q 276 824 322 829 q 183 797 229 818 m 207 39 q 360 106 281 60 q 503 206 439 151 q 607 319 568 261 q 639 422 646 376 q 581 465 633 453 q 458 473 529 476 q 315 453 388 469 q 194 411 242 436 q 194 344 194 392 q 196 239 194 296 q 200 126 197 182 q 207 39 203 71 z "},"E":{"ha":688,"x_min":25,"x_max":699,"o":"m 639 950 q 542 907 606 931 q 406 860 479 883 q 260 812 333 836 q 132 765 186 788 q 136 710 135 733 q 140 660 138 688 q 147 594 142 633 q 161 488 151 554 q 249 524 215 511 q 318 549 282 538 q 403 574 354 560 q 538 613 453 588 q 554 603 544 611 q 570 586 564 596 q 576 567 576 576 q 567 551 576 557 q 452 530 508 544 q 346 497 396 515 q 253 458 296 478 q 176 424 210 439 q 191 297 179 358 q 223 187 203 236 q 270 106 243 138 q 331 68 297 74 q 374 63 346 65 q 439 72 401 61 q 524 113 476 83 q 628 206 571 143 q 682 243 665 239 q 686 231 699 247 q 617 155 649 190 q 553 91 586 119 q 481 42 519 63 q 390 13 442 21 q 272 20 319 -3 q 195 95 225 43 q 147 225 165 147 q 115 397 129 303 q 76 388 92 394 q 36 365 61 382 q 28 377 25 367 q 42 402 31 388 q 72 433 54 417 q 106 460 89 449 q 90 578 97 517 q 75 697 82 640 q 65 798 68 753 q 61 867 61 843 q 74 873 69 871 q 83 876 78 875 q 94 878 88 878 q 117 881 101 879 q 120 861 119 874 q 121 839 121 849 q 249 874 192 857 q 360 906 306 890 q 469 938 414 922 q 592 971 525 954 q 613 972 603 974 q 631 965 624 969 q 640 956 638 960 q 639 950 643 951 z "},"e":{"ha":347,"x_min":8,"x_max":368,"o":"m 125 393 q 149 401 129 394 q 181 403 168 407 q 242 382 221 404 q 246 296 264 360 q 176 178 219 225 q 72 88 132 131 q 114 47 86 51 q 172 56 142 43 q 232 92 203 69 q 279 131 261 114 q 326 173 308 156 q 363 215 343 190 q 367 215 367 218 q 367 204 368 211 q 363 185 365 197 q 354 167 358 175 q 342 151 350 160 q 322 129 335 142 q 292 96 310 117 q 251 58 271 76 q 210 25 232 39 q 163 6 189 11 q 104 6 138 0 q 60 26 76 15 q 34 49 43 38 q 21 71 25 61 q 15 88 17 81 q 10 163 8 115 q 38 285 11 210 q 76 351 56 324 q 125 393 97 378 m 64 147 q 106 174 82 157 q 152 215 131 192 q 190 265 174 238 q 207 324 206 293 q 206 353 211 344 q 200 357 203 357 q 153 350 176 368 q 110 299 129 332 q 77 224 90 265 q 64 147 64 183 z "},"F":{"ha":408,"x_min":29,"x_max":496,"o":"m 119 939 q 129 936 124 942 q 138 919 133 932 q 146 883 142 907 q 219 899 188 892 q 281 913 251 906 q 340 927 310 919 q 411 943 371 935 q 450 949 436 946 q 472 955 464 953 q 483 958 479 957 q 490 958 486 960 q 494 940 493 946 q 495 932 496 935 q 492 926 494 929 q 486 918 490 924 q 434 900 468 911 q 360 877 400 889 q 278 853 319 865 q 204 835 238 842 q 190 831 199 833 q 174 825 182 828 q 153 818 164 821 q 154 784 154 793 q 153 764 154 775 q 152 730 153 753 q 154 653 151 707 q 153 629 153 647 q 156 590 154 611 q 160 536 157 565 q 208 550 185 540 q 260 572 231 560 q 328 599 289 585 q 426 628 368 614 q 424 610 435 619 q 391 589 413 600 q 342 565 369 578 q 292 539 315 553 q 241 516 261 526 q 208 498 221 506 q 185 487 194 490 q 165 483 175 483 q 167 433 165 469 q 170 350 168 397 q 174 249 172 303 q 179 148 176 196 q 185 61 182 100 q 190 4 188 22 q 160 0 176 1 q 128 -1 144 -1 l 128 82 q 124 270 128 178 q 114 464 121 363 q 87 453 96 457 q 72 449 78 450 q 60 448 67 447 q 42 451 54 449 q 37 463 44 463 q 29 471 29 463 q 43 490 33 483 q 65 499 53 496 q 88 507 76 503 q 108 521 100 511 q 106 611 107 574 q 103 678 104 649 q 101 737 103 708 q 97 799 99 765 q 72 794 83 793 q 54 803 61 794 q 44 828 44 814 q 46 846 44 842 q 52 851 44 847 q 68 860 60 856 q 92 871 78 865 q 93 904 90 889 q 101 928 96 917 q 119 939 107 939 z "},"f":{"ha":304,"x_min":-28,"x_max":433,"o":"m 425 743 q 403 743 410 743 q 395 744 397 743 q 393 746 393 744 q 392 750 393 747 q 384 763 389 750 q 371 792 379 776 q 349 820 363 807 q 318 833 336 833 q 254 823 279 843 q 213 765 229 803 q 190 676 197 726 q 178 576 182 626 q 175 478 175 525 q 174 403 175 432 q 217 405 200 404 q 249 406 235 406 q 276 408 264 407 q 304 408 289 408 q 318 400 311 407 q 330 385 325 393 q 337 369 335 376 q 336 363 339 363 q 292 357 311 358 q 254 354 272 356 q 217 352 236 353 q 175 350 199 351 q 181 223 176 279 q 188 116 185 167 q 195 17 192 65 q 200 -86 199 -32 q 185 -97 197 -97 q 161 -94 174 -96 q 156 -93 157 -94 q 153 -81 154 -92 q 152 -43 153 -69 q 149 32 151 -17 q 143 157 147 81 q 131 346 139 233 q 79 342 99 343 q 45 340 60 340 q 17 339 31 339 q -18 338 3 339 q -28 342 -28 338 q -24 355 -28 347 q -16 369 -21 363 q -10 379 -11 376 q 39 386 -1 382 q 128 396 79 390 q 130 619 121 529 q 156 764 139 708 q 196 847 174 819 q 238 882 218 874 q 324 884 286 901 q 388 838 363 867 q 423 778 413 808 q 425 743 433 749 z "},"G":{"ha":665,"x_min":44,"x_max":724,"o":"m 419 890 q 425 878 424 882 q 425 869 426 874 q 419 860 424 865 q 407 843 415 854 q 366 810 403 842 q 282 714 329 779 q 188 549 235 649 q 119 314 142 450 q 116 283 119 308 q 109 222 113 257 q 104 144 106 186 q 108 63 103 101 q 130 24 118 38 q 174 -10 142 10 q 251 -1 211 -17 q 331 44 292 14 q 404 114 369 74 q 466 197 439 154 q 510 283 493 240 q 528 358 526 325 q 495 349 518 358 q 444 326 472 339 q 386 299 415 313 q 336 278 357 285 q 305 299 318 286 q 294 339 292 311 q 334 349 307 339 q 397 373 361 358 q 474 406 433 388 q 552 444 514 425 q 622 480 590 463 q 671 510 653 497 q 697 519 683 510 q 724 528 711 528 q 703 491 721 513 q 665 449 686 469 q 622 412 643 429 q 588 388 600 394 q 588 352 588 382 q 591 286 588 322 q 605 217 594 250 q 636 171 615 183 q 614 142 628 143 q 586 154 600 142 q 563 188 572 167 q 551 224 553 208 q 485 138 518 182 q 408 44 451 94 q 367 10 386 25 q 330 -17 349 -4 q 291 -39 311 -29 q 246 -57 271 -49 q 195 -69 218 -65 q 152 -69 172 -72 q 114 -51 132 -65 q 78 -10 96 -37 q 45 133 46 60 q 60 296 44 207 q 97 469 75 392 q 149 613 119 547 q 219 735 179 679 q 313 842 260 790 q 329 851 318 843 q 355 869 340 860 q 386 885 369 878 q 419 890 403 892 z "},"g":{"ha":443,"x_min":-54,"x_max":440,"o":"m 438 151 q 437 142 440 149 q 427 126 433 135 q 415 110 421 118 q 406 100 408 103 q 346 35 372 63 q 303 -11 319 8 q 302 -27 303 -12 q 301 -43 301 -42 q 299 -138 299 -90 q 293 -235 300 -186 q 276 -324 285 -290 q 257 -380 267 -358 q 237 -416 247 -401 q 214 -449 226 -431 q 189 -475 203 -464 q 151 -501 175 -486 q 85 -531 119 -521 q 21 -534 50 -540 q -28 -503 -8 -528 q -51 -428 -49 -478 q -32 -318 -54 -372 q 21 -219 -10 -264 q 81 -144 51 -175 q 121 -103 110 -114 q 153 -69 139 -83 q 183 -44 168 -56 q 216 -18 199 -32 q 257 15 233 -4 q 264 85 263 49 q 264 161 265 122 q 210 81 239 110 q 159 37 182 51 q 122 19 136 22 q 110 15 107 15 q 67 13 83 11 q 42 22 51 15 q 28 36 33 28 q 21 53 24 44 q 22 127 14 89 q 44 200 29 165 q 78 264 60 235 q 111 311 96 293 q 124 326 114 314 q 151 352 135 338 q 192 382 168 367 q 249 410 217 397 q 314 416 281 417 q 368 400 347 415 q 334 390 357 396 q 304 381 311 383 l 304 378 q 307 374 304 374 q 233 354 283 379 q 125 258 183 329 q 85 191 99 221 q 65 140 71 161 q 58 103 58 118 q 60 79 58 88 q 69 69 61 74 q 90 68 78 65 q 158 105 126 76 q 215 169 189 133 q 258 240 240 206 q 285 296 276 275 q 299 355 299 328 q 297 382 300 382 q 299 382 297 382 q 303 382 301 382 q 303 381 304 382 q 294 379 303 381 q 300 383 297 382 q 306 385 303 383 q 306 388 304 386 q 311 390 308 390 q 318 396 311 393 l 326 399 l 331 401 q 338 406 336 404 q 341 407 339 407 q 349 405 343 407 q 368 399 354 403 q 347 317 356 365 q 331 221 338 269 q 319 128 324 172 q 310 60 314 85 q 342 86 321 71 q 385 117 364 101 q 438 151 410 133 m 263 -89 q 261 -50 267 -57 q 254 -47 258 -46 q 193 -99 217 -78 q 161 -126 169 -119 q 62 -237 94 -189 q 18 -325 29 -285 q 1 -403 3 -369 q 18 -469 -1 -437 q 94 -480 53 -496 q 169 -431 135 -464 q 235 -302 210 -385 q 263 -89 260 -219 z "},"H":{"ha":567,"x_min":-28,"x_max":622,"o":"m 318 981 q 345 985 325 983 q 381 981 365 988 q 383 947 382 975 q 387 876 385 918 q 391 786 389 835 q 396 692 393 738 q 401 612 399 647 q 406 561 403 576 q 463 572 440 568 q 500 578 485 576 q 528 582 515 581 q 558 588 540 583 q 595 589 582 589 q 615 585 608 589 q 622 576 621 582 q 622 563 622 571 q 574 551 601 558 q 519 535 547 543 q 462 517 490 526 q 408 503 433 508 q 413 456 410 492 q 419 371 415 419 q 428 267 424 322 q 439 159 433 211 q 450 64 444 107 q 461 0 456 21 q 467 -28 467 -15 q 475 -67 468 -40 q 444 -76 461 -72 q 414 -74 426 -79 q 403 -43 407 -57 q 397 -12 400 -29 q 392 25 394 4 q 386 78 390 46 q 383 126 385 93 q 377 200 381 158 q 370 288 374 242 q 364 374 367 333 q 360 447 361 415 q 358 490 358 478 q 315 481 333 485 q 276 472 296 476 q 231 463 256 468 q 169 449 206 457 q 171 387 169 419 q 175 303 172 354 q 178 200 176 269 q 183 39 181 131 q 153 26 169 32 q 125 19 136 19 q 124 74 124 28 q 124 183 124 121 q 123 315 124 246 q 119 438 122 383 q 23 411 63 419 q -25 413 -17 403 q -24 426 -28 413 q -12 450 -19 439 q 26 458 10 454 q 55 465 42 461 q 81 473 68 468 q 114 486 94 478 q 106 615 110 558 q 98 721 103 672 q 86 816 93 769 q 68 917 79 863 q 97 940 75 928 q 144 942 118 951 q 146 830 143 881 q 153 728 149 779 q 161 621 157 676 q 167 497 165 565 q 243 515 199 501 q 349 542 288 529 q 347 635 349 576 q 342 754 346 693 q 333 869 338 815 q 322 949 328 922 q 319 962 321 958 q 317 967 318 965 q 317 971 317 968 q 318 981 317 974 z "},"h":{"ha":369,"x_min":1,"x_max":379,"o":"m 54 1000 q 57 965 56 996 q 59 885 58 933 q 60 774 60 836 q 60 647 60 713 q 61 518 61 582 q 61 401 61 454 q 61 310 61 347 q 61 261 61 274 q 105 374 76 329 q 157 421 133 418 q 199 409 185 426 q 223 362 214 392 q 241 295 232 332 q 265 225 250 258 q 307 166 281 192 q 379 135 333 140 q 315 107 343 104 q 264 132 286 110 q 225 189 242 154 q 197 257 208 224 q 179 315 186 290 q 169 344 172 340 q 151 346 161 356 q 131 315 142 336 q 112 267 121 294 q 96 216 103 240 q 85 175 89 192 q 81 160 81 158 q 74 113 76 142 q 70 55 71 83 q 70 3 69 26 q 74 -25 71 -19 q 46 -19 64 -25 q 18 -12 28 -12 q 18 97 18 29 q 18 247 18 164 q 17 424 18 329 q 15 615 17 518 q 10 806 13 711 q 1 986 7 901 q 18 997 1 989 q 54 1000 35 1004 z "},"I":{"ha":232,"x_min":-3,"x_max":100,"o":"m 100 0 q 83 -11 90 -10 q 69 -9 76 -12 q 55 1 63 -6 q 39 11 47 7 q 33 98 38 31 q 25 258 29 165 q 16 458 21 351 q 8 663 11 564 q 1 841 4 761 q 0 958 -1 921 q 2 960 -3 957 q 15 967 7 963 q 35 976 24 971 q 57 983 46 981 q 55 810 56 919 q 58 566 54 700 q 71 285 61 432 q 100 0 81 138 z "},"i":{"ha":174,"x_min":25,"x_max":121,"o":"m 78 611 q 94 594 92 614 q 89 565 97 575 q 69 544 74 553 q 50 532 65 535 q 35 533 42 533 q 25 556 29 532 q 42 586 31 571 q 78 611 54 601 m 82 431 q 92 284 89 364 q 101 117 94 204 q 113 47 107 72 q 121 0 118 22 q 86 1 99 -4 q 63 13 74 6 q 56 86 60 35 q 49 198 53 138 q 42 315 46 258 q 36 406 39 372 q 45 414 42 408 q 53 424 49 419 q 64 431 57 428 q 82 431 71 433 z "},"J":{"ha":376,"x_min":21,"x_max":408,"o":"m 244 304 q 250 286 249 288 q 253 282 251 283 q 277 295 260 283 q 316 322 294 307 q 359 350 338 336 q 396 371 381 364 q 408 367 407 368 q 406 363 408 365 q 261 224 328 301 q 282 40 274 110 q 295 -73 290 -29 q 301 -144 300 -117 q 299 -200 301 -171 q 288 -252 296 -232 q 269 -285 281 -272 q 245 -305 258 -297 q 219 -318 232 -312 q 167 -326 190 -326 q 124 -318 143 -325 q 91 -299 106 -311 q 65 -274 76 -287 q 42 -237 53 -260 q 26 -181 31 -214 q 25 -106 21 -149 q 49 -7 29 -62 q 76 60 61 29 q 110 121 92 92 q 151 178 128 150 q 201 239 174 207 q 195 298 201 250 q 179 413 189 346 q 157 559 169 481 q 132 710 144 638 q 108 843 119 783 q 90 932 97 903 q 99 939 94 933 q 109 950 104 944 q 119 960 114 956 q 132 964 125 965 q 144 944 136 971 q 161 866 151 917 q 181 747 171 815 q 203 602 192 678 q 224 449 214 526 q 244 304 235 372 m 72 -179 q 93 -226 82 -208 q 117 -253 104 -243 q 143 -267 129 -262 q 169 -276 157 -272 q 178 -277 167 -275 q 196 -276 189 -279 q 223 -265 211 -274 q 244 -244 235 -256 q 259 -187 258 -229 q 253 -87 260 -146 q 234 44 246 -28 q 213 190 222 115 q 156 113 183 153 q 109 29 129 74 q 78 -67 89 -15 q 72 -179 68 -118 z "},"j":{"ha":217,"x_min":-125,"x_max":278,"o":"m 33 389 q 56 423 42 413 q 83 442 69 433 q 94 401 89 429 q 105 340 100 374 q 113 274 110 307 q 121 217 117 240 q 126 186 124 203 q 131 150 128 169 q 151 165 139 154 q 181 188 164 176 q 217 207 197 199 q 263 214 238 215 q 268 210 264 213 q 275 206 272 208 q 276 200 278 203 q 267 196 275 197 q 226 176 250 193 q 182 139 203 160 q 147 97 161 118 q 132 61 132 75 q 135 71 133 67 q 138 69 138 79 q 140 -43 136 17 q 139 -193 143 -103 q 128 -306 135 -265 q 113 -369 122 -346 q 93 -405 104 -392 q 67 -436 82 -418 q 34 -458 56 -447 q -24 -469 13 -469 q -121 -362 -94 -469 q -121 -281 -125 -318 q -107 -214 -117 -244 q -85 -158 -97 -183 q -65 -111 -74 -133 q -40 -67 -53 -89 q -9 -20 -26 -44 q 31 33 8 4 q 82 99 53 63 q 78 136 79 118 q 74 167 75 151 q 72 190 74 182 q 63 245 68 215 q 53 303 58 275 q 42 355 47 332 q 33 389 38 378 m -78 -239 q -77 -346 -86 -300 q -40 -411 -68 -392 q -12 -419 -29 -417 q 19 -417 6 -421 q 72 -351 56 -400 q 93 -240 88 -303 q 97 -107 99 -176 q 94 24 94 -37 q 92 37 93 38 q 83 29 90 36 q 31 -33 57 1 q -17 -103 6 -67 q -55 -174 -39 -139 q -78 -239 -71 -210 m 49 600 q 63 585 61 601 q 58 561 64 569 q 42 543 46 550 q 26 535 39 536 q 14 535 19 536 q 6 554 8 535 q 19 578 10 565 q 49 600 29 592 z "},"K":{"ha":463,"x_min":19,"x_max":517,"o":"m 135 485 q 184 449 140 476 q 286 392 228 422 q 405 335 344 361 q 506 303 465 308 q 512 283 510 289 q 515 273 514 276 q 516 266 515 269 q 517 254 517 263 q 460 267 499 256 q 368 299 421 279 q 253 347 315 319 q 128 407 190 375 q 126 278 128 342 q 124 150 124 215 q 124 124 124 147 q 125 73 125 101 q 125 19 125 44 q 124 -15 125 -7 l 82 -1 q 81 47 81 14 q 81 123 81 81 q 81 212 81 165 q 80 301 81 258 q 78 377 79 343 q 75 426 76 411 q 62 434 71 431 q 44 443 53 438 q 28 456 36 449 q 19 475 21 464 q 43 496 25 486 q 75 518 61 506 q 72 551 74 524 q 69 617 71 578 q 64 702 67 657 q 60 788 61 747 q 58 858 58 828 q 57 899 57 889 q 65 904 57 900 q 84 911 74 908 q 103 915 94 914 q 111 911 111 917 q 119 727 114 811 q 126 560 125 643 q 156 595 138 571 q 197 650 175 619 q 242 713 219 681 q 285 774 265 746 q 317 824 304 803 q 333 851 331 846 q 356 858 347 856 q 372 863 365 861 q 385 867 378 865 q 404 872 392 869 q 385 835 397 856 q 360 794 374 815 q 334 753 347 774 q 308 717 321 733 q 288 684 307 714 q 240 616 268 654 q 183 540 213 578 q 135 485 154 501 z "},"k":{"ha":353,"x_min":3,"x_max":363,"o":"m 94 272 q 152 261 126 265 q 203 253 178 257 q 260 247 229 250 q 335 240 292 244 q 351 217 347 226 q 363 189 356 208 q 282 201 318 197 q 210 208 246 206 q 138 213 175 211 q 54 219 100 215 q 57 94 53 149 q 57 -6 61 39 q 44 -3 49 -7 q 35 7 39 1 q 26 19 31 13 q 13 28 21 25 q 11 381 17 219 q 8 689 6 542 q 9 752 8 717 q 10 822 10 788 q 8 883 10 856 q 3 919 7 910 q 22 933 13 931 q 54 938 31 936 q 54 603 57 768 q 54 289 51 438 q 104 333 78 307 q 153 385 131 360 q 193 428 176 410 q 214 449 210 447 q 240 430 226 438 q 253 424 253 422 q 181 341 218 385 q 94 272 143 297 z "},"L":{"ha":460,"x_min":4,"x_max":475,"o":"m 75 967 q 82 917 78 956 q 92 822 86 878 q 104 695 97 765 q 119 551 111 625 q 135 406 126 478 q 153 272 143 333 q 172 165 163 211 q 192 100 182 119 q 239 86 213 81 q 293 112 265 92 q 347 163 321 132 q 397 224 374 193 q 436 280 419 254 q 460 315 453 306 q 469 300 465 307 q 474 287 472 293 q 472 278 475 281 q 433 208 456 243 q 388 140 411 172 q 340 81 364 107 q 299 40 317 56 q 226 3 256 13 q 158 21 196 -7 q 135 70 143 43 q 120 134 126 97 q 108 217 114 171 q 96 322 103 263 q 64 599 79 488 q 36 782 49 711 q 15 888 24 853 q 4 935 7 922 q 19 947 13 940 q 33 958 25 953 q 50 965 40 963 q 75 967 60 968 z "},"l":{"ha":160,"x_min":-29,"x_max":196,"o":"m 71 288 q 75 249 71 283 q 85 164 79 214 q 98 56 90 114 q 112 -53 106 -1 q 124 -145 118 -106 q 131 -196 129 -185 q 117 -193 122 -194 q 106 -186 111 -192 q 92 -170 100 -181 q 71 -140 85 -160 q 42 83 53 -12 q 25 238 32 178 q -11 193 0 204 q -25 182 -22 182 q -26 194 -29 182 q -24 208 -25 201 q -21 221 -22 215 q -17 231 -19 226 q 1 258 -7 244 q 13 283 8 272 q 21 310 18 297 q 19 336 19 325 q 18 359 18 347 q 17 383 18 371 q 17 415 17 396 q 17 470 17 433 q 17 552 17 507 q 18 647 17 597 q 22 742 19 697 q 27 824 24 788 q 35 881 31 861 q 65 942 44 921 q 107 967 85 964 q 151 956 129 971 q 183 911 172 942 q 196 832 196 881 q 188 726 196 783 q 165 606 179 668 q 133 484 150 543 q 100 374 117 425 q 71 288 83 322 m 60 367 q 117 566 94 468 q 149 742 139 664 q 156 867 160 819 q 136 917 153 915 q 94 899 110 926 q 70 821 79 871 q 58 706 61 771 q 56 578 56 642 q 58 457 57 514 q 60 367 60 400 z "},"M":{"ha":865,"x_min":-61,"x_max":810,"o":"m 240 908 q 241 912 239 910 q 244 915 243 914 q 244 917 246 917 q 236 915 243 917 q 174 865 206 903 q 115 774 143 826 q 61 665 86 722 q 19 557 36 607 q -8 472 1 507 q -14 429 -17 436 q -44 422 -29 422 q -61 444 -58 421 q -39 524 -56 474 q 1 631 -22 574 q 52 747 25 689 q 107 850 79 806 q 165 931 140 903 q 189 958 190 958 q 228 976 208 971 q 268 972 247 981 q 289 946 281 968 q 302 897 297 924 q 308 842 307 869 q 310 803 310 815 q 308 730 310 764 q 303 658 306 696 q 299 578 301 621 q 294 481 296 536 q 315 551 300 510 q 349 633 329 593 q 393 707 368 674 q 447 753 418 740 q 490 720 481 756 q 504 631 500 685 q 506 603 504 625 q 509 553 507 582 q 513 494 511 525 q 518 438 515 463 q 524 399 521 414 q 529 389 526 385 q 565 450 546 417 q 606 513 585 483 q 648 565 626 543 q 690 592 669 586 q 728 569 714 597 q 751 492 743 540 q 765 382 760 443 q 775 263 769 321 q 788 155 781 204 q 810 81 796 106 q 776 85 790 72 q 746 107 763 97 q 740 155 742 121 q 735 232 738 189 q 729 322 732 275 q 722 408 726 368 q 710 473 717 447 q 693 501 703 499 q 683 505 686 501 q 671 497 681 508 q 609 417 633 456 q 570 347 585 378 q 549 294 556 315 q 542 268 543 272 q 521 184 531 238 q 508 72 511 131 q 491 77 494 68 q 475 99 488 86 q 477 142 476 106 q 477 233 478 179 q 474 351 476 288 q 469 474 472 414 q 460 582 465 533 q 447 656 454 631 q 425 642 439 657 q 398 605 411 626 q 374 563 385 583 q 360 532 363 542 q 317 406 332 457 q 297 320 303 356 q 289 260 290 285 q 283 210 288 235 q 278 144 281 172 q 276 90 276 117 q 278 31 276 63 q 282 -43 279 0 q 250 -35 261 -44 q 215 -4 239 -26 q 219 42 217 10 q 225 108 222 74 q 230 170 228 143 q 232 200 232 197 q 238 286 236 251 q 240 349 239 321 q 242 403 242 376 q 243 465 243 429 q 245 520 244 497 q 246 576 246 543 q 247 622 246 581 q 247 717 247 664 q 246 824 247 771 q 240 908 244 878 z "},"m":{"ha":524,"x_min":0,"x_max":540,"o":"m 17 468 q 24 483 17 481 q 38 482 31 485 q 53 473 46 479 q 64 464 61 467 q 61 365 67 428 q 56 210 56 303 q 72 263 61 232 q 98 324 83 293 q 130 383 113 356 q 164 426 147 410 q 196 442 181 442 q 224 418 211 442 q 228 390 226 411 q 231 338 231 368 q 233 269 232 307 q 238 193 235 232 q 266 260 250 224 q 300 327 282 297 q 339 374 318 357 q 383 381 360 390 q 399 355 394 376 q 406 304 403 333 q 412 242 408 275 q 425 183 415 210 q 453 141 435 157 q 501 129 471 125 q 526 128 518 129 q 537 126 533 128 q 540 122 540 125 q 539 114 539 119 q 455 97 488 88 q 403 135 422 106 q 377 208 385 165 q 367 292 369 250 q 355 307 364 310 q 333 286 346 304 q 304 241 319 268 q 275 183 289 214 q 251 124 261 153 q 235 78 240 96 q 213 71 228 65 q 193 92 197 76 q 187 147 188 114 q 187 213 186 179 q 189 277 188 246 q 189 331 190 308 q 183 361 188 353 q 168 357 179 369 q 124 275 144 321 q 89 180 104 229 q 63 81 74 131 q 50 -8 53 32 q 17 -2 26 -14 q 0 22 7 10 q 5 92 3 40 q 9 211 7 144 q 13 347 11 278 q 17 468 15 417 z "},"N":{"ha":772,"x_min":-81,"x_max":782,"o":"m 240 979 q 285 955 271 982 q 304 889 299 928 q 308 808 310 850 q 307 740 307 767 q 307 683 307 721 q 307 599 307 644 q 306 506 307 554 q 305 419 306 458 q 304 353 304 379 q 304 324 304 326 q 313 353 307 326 q 328 419 319 381 q 349 500 338 457 q 374 579 361 543 q 383 613 375 583 q 405 673 390 642 q 442 728 419 704 q 496 744 464 751 q 540 708 521 750 q 572 599 558 667 q 594 447 585 531 q 610 289 603 364 q 624 158 618 214 q 638 88 631 103 q 696 83 660 58 q 778 165 732 108 q 781 149 781 161 q 776 120 782 138 q 752 80 769 103 q 703 31 735 57 q 622 24 653 6 q 579 85 590 43 q 571 149 576 99 q 558 265 565 199 q 543 404 551 332 q 526 538 535 476 q 506 638 517 599 q 486 674 496 676 q 468 666 478 679 q 448 628 458 653 q 427 569 438 603 q 406 503 417 536 q 388 441 396 469 q 375 396 381 413 q 351 310 361 349 q 333 226 342 271 q 318 126 325 182 q 306 -10 311 69 q 269 -3 278 -12 q 246 15 261 7 q 247 100 246 42 q 247 231 247 158 q 248 384 247 304 q 249 533 249 464 q 251 563 249 536 q 254 626 253 589 q 257 709 256 664 q 256 796 258 754 q 249 870 254 838 q 233 917 244 903 q 194 904 217 926 q 144 841 171 882 q 92 747 118 800 q 43 640 65 693 q 5 538 21 586 q -17 463 -11 490 q -30 443 -21 451 q -49 431 -39 435 q -67 427 -58 426 q -81 435 -76 428 q -47 544 -68 485 q 0 663 -26 603 q 56 781 26 724 q 117 881 86 838 q 180 952 149 925 q 240 979 211 979 z "},"n":{"ha":367,"x_min":15,"x_max":382,"o":"m 65 424 q 65 346 65 385 q 63 271 64 307 q 62 203 63 235 q 60 146 61 171 q 66 173 60 151 q 83 222 72 194 q 108 281 94 250 q 136 337 121 313 q 167 375 151 361 q 197 383 183 389 q 240 343 228 369 q 258 283 253 317 q 269 207 264 249 q 294 119 275 165 q 319 89 303 99 q 349 75 335 79 q 373 70 364 71 q 379 65 382 69 q 319 47 344 39 q 277 84 294 56 q 249 152 260 113 q 228 228 238 192 q 213 291 219 265 q 197 317 206 317 q 170 293 185 315 q 140 238 156 271 q 111 165 125 204 q 85 90 97 125 q 67 31 74 56 q 58 0 60 6 q 33 -1 38 0 q 17 13 28 -3 q 22 244 24 135 q 15 433 19 353 q 22 446 15 446 q 35 440 28 446 q 51 429 43 435 q 65 424 60 424 z "},"O":{"ha":479,"x_min":-44,"x_max":490,"o":"m 479 640 q 482 485 490 561 q 453 341 474 410 q 401 213 432 272 q 338 110 371 154 q 272 39 304 67 q 214 6 239 11 q 131 6 160 -3 q 75 47 101 14 q 34 141 49 82 q 13 267 19 200 q 7 401 7 333 q 11 522 7 468 q 24 628 18 586 q 35 706 29 671 q 49 776 42 742 q 68 857 57 811 q 29 865 49 858 q -7 881 10 872 q -34 901 -24 890 q -44 919 -44 911 q 172 894 83 914 q 319 847 261 875 q 408 788 376 819 q 456 726 440 756 q 474 674 471 697 q 479 640 478 650 m 68 361 q 77 259 71 311 q 97 164 83 207 q 133 94 110 121 q 193 68 156 67 q 242 83 218 65 q 290 128 267 100 q 333 194 313 157 q 370 268 354 231 q 399 340 386 306 q 417 396 411 374 q 430 487 428 442 q 427 572 432 532 q 414 644 422 611 q 396 696 406 676 q 294 792 368 749 q 119 842 221 835 q 110 792 115 826 q 98 713 104 758 q 86 617 92 668 q 76 517 81 565 q 69 427 71 468 q 68 361 67 386 z "},"o":{"ha":275,"x_min":-19,"x_max":249,"o":"m 7 417 q 65 409 33 415 q 128 392 97 403 q 184 369 158 382 q 226 339 210 356 q 246 292 243 324 q 242 224 249 261 q 220 147 235 186 q 188 75 206 107 q 149 22 169 43 q 110 1 128 1 q 58 16 79 1 q 25 51 38 31 q 6 95 13 72 q -1 135 0 118 q -3 265 -6 208 q 7 360 0 322 q -1 372 3 367 q -10 383 -6 378 q -19 392 -14 388 q -8 400 -14 394 q 7 417 3 408 m 57 86 q 68 74 61 81 q 85 65 75 68 q 107 64 96 61 q 131 79 118 67 q 181 151 164 114 q 202 220 197 188 q 201 278 207 253 q 181 314 194 303 q 162 326 169 321 q 142 335 154 331 q 113 344 131 339 q 65 357 94 349 q 46 268 51 313 q 41 187 40 224 q 47 123 42 150 q 57 86 51 96 z "},"P":{"ha":479,"x_min":-17,"x_max":610,"o":"m 289 389 q 303 281 296 338 q 317 171 311 224 q 324 75 322 118 q 321 9 325 32 q 304 -10 317 -14 q 268 33 292 -7 q 259 215 268 129 q 236 386 250 300 q 174 397 204 386 q 118 420 143 407 q 78 448 93 433 q 64 472 64 463 q 94 465 74 469 q 138 458 115 461 q 184 452 161 454 q 221 450 207 450 q 205 563 213 513 q 190 660 197 613 q 174 756 182 707 q 160 867 167 806 q 73 900 117 885 q -11 935 29 915 q -15 947 -14 943 q -16 953 -17 950 q -12 959 -15 956 q 0 969 -8 963 q 52 960 11 972 q 149 927 93 949 q 270 876 206 906 q 395 815 335 846 q 503 752 456 783 q 574 694 551 721 q 602 656 594 678 q 606 610 610 633 q 589 563 603 586 q 554 518 575 539 q 505 477 533 499 q 443 437 476 456 q 371 405 410 418 q 289 389 332 392 m 271 453 q 387 467 336 453 q 472 506 438 481 q 523 564 507 531 q 533 633 539 597 q 496 690 531 661 q 412 745 461 718 q 308 798 363 772 q 210 847 253 824 q 217 784 213 818 q 229 705 222 750 q 247 599 236 660 q 271 453 257 538 z "},"p":{"ha":410,"x_min":-12,"x_max":369,"o":"m 325 381 q 338 374 331 378 q 353 361 346 369 q 365 340 360 353 q 369 306 369 326 q 333 175 367 233 q 253 76 300 117 q 157 17 207 36 q 72 3 107 -3 q 74 -222 72 -132 q 77 -370 76 -312 q 77 -457 78 -428 q 73 -497 76 -486 q 60 -508 69 -508 q 38 -504 51 -507 q 33 -497 35 -508 q 31 -462 32 -487 q 31 -385 31 -437 q 30 -337 31 -381 q 28 -227 29 -293 q 26 -82 28 -161 q 21 72 24 -3 q 15 211 18 147 q 6 310 11 275 q 4 324 6 313 q 1 351 3 335 q -5 388 -1 368 q -12 425 -8 407 q 19 420 11 426 q 36 406 28 414 q 52 321 44 379 q 69 163 60 263 q 84 201 72 176 q 115 255 96 226 q 160 311 135 283 q 213 358 185 339 q 269 385 240 378 q 325 381 297 393 m 150 68 q 251 136 214 94 q 304 219 288 178 q 321 292 321 260 q 308 332 321 324 q 256 336 281 350 q 207 303 231 322 q 172 263 194 292 q 128 200 150 235 q 90 130 106 165 q 74 68 74 94 q 90 58 79 61 q 113 57 99 56 q 150 68 128 58 z "},"Q":{"ha":533,"x_min":6,"x_max":611,"o":"m 78 910 q 55 922 64 917 q 38 929 46 926 q 24 934 31 932 q 6 939 17 936 l 6 982 q 51 972 14 979 q 141 946 88 964 q 260 897 194 928 q 392 819 325 867 q 501 713 464 768 q 553 603 539 658 q 560 493 567 549 q 536 386 553 438 q 504 313 524 350 q 462 239 485 275 q 415 171 439 203 q 368 115 390 139 q 388 47 374 78 q 417 -6 401 17 q 449 -44 433 -29 q 478 -65 465 -58 q 543 -82 510 -83 q 608 -65 576 -81 q 606 -84 611 -79 q 600 -92 601 -89 q 501 -112 544 -119 q 424 -78 457 -106 q 366 -10 390 -50 q 325 65 342 29 q 303 46 319 61 q 263 18 288 31 q 208 1 239 6 q 142 14 176 -3 q 83 94 106 38 q 51 232 61 150 q 43 419 42 314 q 56 647 44 524 q 59 688 57 656 q 64 760 61 719 q 70 841 67 800 q 78 910 74 882 m 100 471 q 101 431 100 467 q 102 350 101 394 q 106 264 103 306 q 113 204 108 222 q 130 131 119 163 q 168 81 140 100 q 210 67 189 65 q 249 77 231 68 q 282 99 268 86 q 303 124 296 113 q 291 183 296 153 q 283 242 286 214 q 278 294 281 271 q 274 335 275 318 q 303 326 288 335 q 336 310 318 317 q 340 274 339 288 q 343 249 342 261 q 347 222 344 236 q 356 183 350 207 q 411 256 378 208 q 469 366 444 304 q 499 499 493 428 q 471 643 504 571 q 427 701 457 671 q 359 758 397 731 q 280 811 321 786 q 205 854 239 836 q 148 883 171 872 q 124 893 125 893 q 117 805 121 863 q 108 684 113 747 q 102 563 104 621 q 100 471 100 504 z "},"q":{"ha":422,"x_min":38,"x_max":400,"o":"m 369 401 q 363 333 367 378 q 357 235 360 289 q 352 125 354 182 q 350 21 350 68 q 349 -60 350 -12 q 347 -160 347 -107 q 347 -267 346 -212 q 354 -369 349 -321 q 371 -457 360 -418 q 400 -517 382 -496 q 379 -522 392 -522 q 355 -517 367 -521 q 334 -507 343 -512 q 325 -497 325 -501 q 311 -446 315 -497 q 306 -307 307 -394 q 306 -106 306 -219 q 307 131 307 7 q 242 69 278 97 q 172 26 207 40 q 103 16 136 11 q 47 54 69 21 q 43 112 38 75 q 67 192 49 149 q 115 278 85 235 q 185 353 146 321 q 271 399 224 385 q 369 401 318 414 m 94 82 q 151 65 111 54 q 229 117 190 76 q 297 220 268 157 q 321 360 325 283 q 251 346 285 363 q 190 302 218 329 q 141 241 163 275 q 106 175 119 207 q 90 117 93 143 q 94 82 86 92 z "},"R":{"ha":768,"x_min":-72,"x_max":781,"o":"m 624 639 q 556 592 603 615 q 453 550 510 569 q 341 516 397 531 q 246 493 285 501 q 279 435 260 456 q 329 383 299 414 q 408 322 375 347 q 472 275 442 296 q 533 235 501 254 q 606 193 564 217 q 692 161 661 171 q 739 148 722 151 q 763 144 756 144 q 778 140 769 144 q 765 128 781 132 q 729 125 750 125 q 687 127 708 125 q 656 132 665 129 q 607 147 635 138 q 542 174 579 157 q 458 220 504 192 q 354 293 411 249 q 311 324 331 311 q 278 347 292 338 q 249 367 263 358 q 256 319 251 350 q 267 249 261 288 q 278 168 272 210 q 290 89 285 126 q 301 22 296 51 q 311 -19 307 -7 q 271 -22 290 -28 q 242 -18 251 -17 q 223 175 236 74 q 201 399 210 276 q 201 401 200 403 q 202 397 201 399 q 202 397 203 396 q 199 408 201 399 q 174 440 183 429 q 157 458 165 450 q 139 477 149 467 q 111 510 129 488 q 133 519 115 515 q 171 531 150 524 q 160 619 164 578 q 151 699 156 660 q 143 776 147 738 q 133 857 139 814 q 69 859 121 857 q -49 863 17 861 q -66 874 -60 869 q -69 901 -72 879 q -9 903 -46 904 q 66 901 28 903 q 140 897 104 900 q 197 893 175 894 q 469 841 369 874 q 613 772 568 808 q 655 700 657 736 q 624 639 653 664 m 225 536 q 334 563 271 544 q 455 603 397 582 q 553 648 513 625 q 592 690 593 671 l 592 703 q 547 746 586 724 q 451 788 508 768 q 326 824 393 807 q 196 849 258 840 q 207 710 201 788 q 225 536 213 632 z "},"r":{"ha":292,"x_min":36,"x_max":340,"o":"m 38 439 q 51 445 36 451 q 81 432 65 439 q 89 381 86 400 q 93 346 92 363 q 96 310 94 329 q 100 258 97 290 q 131 317 113 290 q 177 364 149 344 q 245 392 206 383 q 340 399 285 401 q 333 380 340 388 q 297 368 325 372 q 227 341 257 361 q 176 294 197 321 q 141 238 154 268 q 119 183 128 208 q 116 148 118 171 q 113 99 114 125 q 112 49 113 74 q 114 11 111 25 q 108 1 115 4 q 90 -4 100 -3 q 72 -3 81 -6 q 64 7 64 0 q 56 253 67 150 q 38 439 46 357 z "},"S":{"ha":638,"x_min":-18,"x_max":642,"o":"m 371 849 q 387 813 383 821 q 393 785 390 804 q 364 808 376 799 q 339 826 351 818 q 311 839 326 833 q 275 849 296 844 q 170 844 219 856 q 87 809 121 833 q 39 749 53 785 q 39 672 25 714 q 86 584 54 626 q 159 501 118 542 q 247 426 200 461 q 335 359 293 390 q 414 303 378 328 q 469 260 450 278 q 550 297 513 282 q 628 328 588 313 l 636 328 q 638 319 642 326 q 608 296 625 308 q 572 270 590 283 q 537 244 554 257 q 506 222 519 232 q 558 149 546 182 q 560 85 571 117 q 514 22 549 54 q 424 -49 479 -11 q 346 -92 388 -74 q 269 -113 304 -110 q 212 -100 233 -117 q 197 -37 190 -83 q 279 101 219 38 q 417 231 339 165 q 390 254 417 235 q 320 304 363 274 q 227 375 278 335 q 130 460 176 415 q 47 553 83 504 q -1 649 11 601 q -9 753 -18 708 q 20 827 0 797 q 65 874 40 857 q 104 896 89 890 q 169 913 136 906 q 235 917 201 919 q 302 898 268 914 q 371 849 336 882 m 257 -31 q 264 -47 254 -40 q 296 -51 274 -53 q 352 -38 318 -50 q 433 1 386 -26 q 487 53 468 25 q 509 108 506 81 q 500 158 513 135 q 458 194 488 181 q 412 162 444 188 q 345 103 379 136 q 285 33 311 69 q 257 -31 258 -3 z "},"s":{"ha":369,"x_min":-31,"x_max":408,"o":"m 153 438 q 210 422 188 432 q 247 401 233 413 q 267 376 260 389 q 282 353 275 364 q 269 354 281 347 q 246 368 257 361 q 172 392 215 388 q 92 387 129 396 q 33 356 56 378 q 22 301 11 333 q 62 246 33 269 q 125 203 90 222 q 194 169 160 185 q 251 139 229 154 q 299 165 279 154 q 333 184 318 175 q 365 201 349 193 q 401 218 381 208 q 406 219 404 219 q 406 216 408 219 q 395 205 404 213 q 367 183 386 197 q 331 160 357 176 q 274 124 304 143 q 300 92 290 108 q 312 59 308 76 q 306 24 315 42 q 243 -46 278 -21 q 179 -81 208 -71 q 136 -82 160 -87 q 99 -60 113 -76 q 91 -15 83 -37 q 117 30 99 8 q 158 71 135 51 q 200 106 182 90 q 151 140 188 119 q 77 184 115 160 q 8 236 39 208 q -25 292 -22 264 q -17 351 -31 322 q 22 401 -4 379 q 81 433 47 422 q 153 438 115 443 m 140 -39 q 175 -39 156 -46 q 212 -19 194 -32 q 242 10 229 -6 q 260 39 256 26 q 252 63 264 50 q 228 85 240 76 q 193 56 213 74 q 159 21 174 39 q 138 -14 144 3 q 140 -39 131 -31 z "},"T":{"ha":354,"x_min":-278,"x_max":553,"o":"m 547 914 q 450 912 500 915 q 351 903 400 908 q 257 890 303 897 q 174 878 211 883 q 182 668 178 772 q 192 458 186 564 q 208 242 199 351 q 231 14 217 132 q 221 4 231 8 q 200 0 211 0 q 178 3 189 0 q 165 18 168 7 q 156 168 160 85 q 147 338 151 251 q 138 510 143 425 q 128 668 133 596 q 116 793 122 740 q 103 868 110 846 q -67 858 22 868 q -240 839 -157 849 q -264 840 -254 836 q -276 851 -274 844 q -269 867 -278 858 q -237 883 -261 875 q -44 913 -137 901 q 139 934 49 925 q 321 952 229 943 q 510 975 413 961 q 526 967 517 975 q 541 949 535 960 q 550 928 547 939 q 547 914 553 918 z "},"t":{"ha":389,"x_min":6,"x_max":481,"o":"m 221 414 q 338 423 281 418 q 458 433 396 428 q 476 419 472 432 q 465 403 481 406 q 347 388 414 397 q 221 363 281 378 q 224 274 224 319 q 226 185 224 229 q 234 101 228 142 q 254 25 240 60 q 293 -3 274 1 q 330 -1 313 -7 q 362 19 347 6 q 388 44 376 32 q 403 44 397 54 q 392 15 410 35 q 371 -6 383 6 q 341 -24 358 -17 q 302 -34 324 -32 q 256 -29 281 -36 q 208 22 224 -21 q 185 123 193 65 q 175 243 178 181 q 168 356 172 306 q 78 346 107 350 q 38 340 50 342 q 21 342 25 339 q 6 354 17 344 q 6 367 7 361 q 6 378 6 374 q 12 386 7 382 q 31 393 17 390 q 91 399 51 399 q 168 406 131 400 q 165 475 167 450 q 163 519 164 500 q 160 556 161 538 q 160 603 160 574 q 167 613 160 610 q 185 617 175 617 q 203 615 194 618 q 214 604 211 611 q 219 567 218 592 q 222 516 221 543 q 222 461 222 489 q 221 414 222 433 z "},"U":{"ha":676,"x_min":28,"x_max":688,"o":"m 63 921 q 76 908 71 919 q 83 878 81 896 q 86 842 85 861 q 89 804 88 822 q 97 719 92 782 q 110 576 103 657 q 128 407 118 494 q 147 248 138 319 q 167 131 157 176 q 185 92 176 86 q 242 115 214 82 q 293 204 269 147 q 336 335 317 261 q 367 485 356 410 q 384 627 379 560 q 383 739 389 694 q 391 753 382 749 q 411 757 400 757 q 433 753 422 757 q 447 740 444 749 q 444 629 447 693 q 440 494 442 565 q 439 353 439 424 q 444 223 439 282 q 460 121 449 164 q 494 64 472 78 q 563 65 532 53 q 616 100 593 78 q 654 147 639 122 q 676 182 669 171 q 685 183 682 193 q 681 153 688 174 q 637 86 663 121 q 581 28 611 51 q 519 1 551 6 q 453 24 486 -4 q 425 67 438 33 q 404 143 413 100 q 392 233 396 186 q 392 318 389 281 q 319 138 350 199 q 267 51 289 76 q 230 25 244 26 q 206 24 215 24 q 178 22 190 22 q 154 29 165 22 q 134 52 143 36 q 117 99 125 68 q 74 496 93 293 q 28 900 56 699 q 32 914 28 907 q 63 921 36 921 z "},"u":{"ha":376,"x_min":19,"x_max":400,"o":"m 88 61 q 119 85 97 54 q 163 163 142 115 q 197 265 183 211 q 206 360 211 319 q 213 370 206 368 q 228 372 219 372 q 247 371 238 372 q 260 368 256 369 q 252 291 257 338 q 246 199 247 244 q 249 115 244 153 q 272 67 254 78 q 308 68 288 57 q 347 96 328 79 q 381 126 365 113 q 400 135 396 139 q 376 89 394 111 q 335 51 358 67 q 287 30 313 36 q 240 32 261 24 q 227 48 232 33 q 219 82 222 63 q 213 124 215 101 q 208 164 211 146 q 183 114 197 142 q 156 61 169 86 q 129 18 142 36 q 108 -3 117 0 q 65 -8 81 -14 q 44 10 50 -1 q 33 38 36 14 q 27 100 29 63 q 25 185 25 138 q 25 281 25 232 q 24 378 25 331 q 19 467 22 426 q 39 465 29 467 q 56 462 47 464 q 69 453 64 460 q 72 340 76 421 q 64 146 67 260 q 65 130 64 142 q 67 104 65 118 q 74 78 69 90 q 88 61 79 65 z "},"V":{"ha":388,"x_min":-78,"x_max":433,"o":"m 243 -7 q 215 -12 221 -14 q 200 8 210 -11 q 132 188 171 86 q 54 394 93 290 q -20 592 15 497 q -78 753 -56 688 q -69 763 -78 761 q -49 765 -60 765 q -28 760 -37 764 q -19 753 -19 757 q 38 581 13 657 q 90 433 64 506 q 149 282 117 360 q 225 104 181 204 q 298 424 268 268 q 345 703 328 579 q 371 905 363 826 q 382 994 379 983 q 390 1004 382 1001 q 408 1007 399 1007 q 426 1003 418 1007 q 433 994 433 1000 q 417 882 429 964 q 389 693 406 800 q 352 469 372 586 q 313 250 332 351 q 274 78 293 149 q 243 -7 256 7 z "},"v":{"ha":333,"x_min":13,"x_max":321,"o":"m 285 456 q 289 458 283 460 q 301 451 294 456 q 315 442 308 447 q 321 432 321 436 q 260 218 306 324 q 149 17 215 113 q 115 -1 131 -1 q 92 14 99 -1 q 74 88 82 43 q 59 184 67 133 q 42 287 51 235 q 19 383 32 339 q 22 412 13 407 q 61 406 31 417 q 71 370 65 406 q 84 284 76 335 q 102 178 92 233 q 128 81 113 122 q 144 97 132 78 q 174 148 157 117 q 209 220 190 179 q 244 303 228 261 q 271 386 260 346 q 285 456 282 426 z "},"W":{"ha":646,"x_min":6,"x_max":654,"o":"m 549 85 q 539 71 546 78 q 524 62 532 64 q 507 65 515 60 q 492 85 499 69 q 444 177 464 135 q 407 266 424 219 q 374 369 390 313 q 335 503 357 425 q 291 371 314 440 q 244 235 268 301 q 194 113 219 169 q 146 19 169 56 q 120 -8 131 -1 q 102 -13 110 -15 q 90 -3 94 -11 q 82 13 85 6 q 60 244 69 133 q 43 443 51 356 q 26 588 35 531 q 8 658 18 646 q 26 696 6 683 q 65 701 46 708 q 76 656 71 700 q 87 545 82 611 q 97 401 92 479 q 106 258 101 324 q 115 148 111 192 q 122 104 118 104 q 140 115 126 94 q 170 177 153 136 q 208 274 188 218 q 248 390 228 331 q 286 509 268 450 q 318 615 304 568 q 331 636 325 631 q 354 638 336 642 q 369 617 364 633 q 378 575 375 600 q 385 519 381 550 q 397 458 389 489 q 415 392 404 432 q 440 311 426 353 q 467 231 453 269 q 499 171 482 193 q 519 199 507 164 q 543 294 531 235 q 567 429 556 354 q 588 575 579 504 q 599 703 596 646 q 599 788 603 761 q 601 811 599 804 q 604 822 603 818 q 606 828 606 825 q 603 839 606 831 q 605 852 600 844 q 617 865 610 860 q 634 872 625 871 q 650 867 643 874 q 654 842 654 861 q 652 794 654 824 q 647 726 650 765 q 642 642 643 688 q 622 496 632 571 q 600 348 611 421 q 576 207 589 275 q 549 85 563 139 z "},"w":{"ha":456,"x_min":-6,"x_max":419,"o":"m 69 53 q 83 63 74 53 q 105 103 92 72 q 137 191 118 135 q 179 340 156 247 q 196 352 185 360 q 213 325 207 344 q 229 291 217 318 q 257 233 242 264 q 288 176 272 201 q 315 149 304 150 q 340 176 329 146 q 356 249 350 207 q 366 333 363 290 q 369 399 369 376 q 382 414 372 403 q 401 431 392 425 q 415 433 411 438 q 413 401 419 428 q 402 275 413 333 q 377 174 392 217 q 346 107 363 131 q 315 83 329 83 q 280 105 299 82 q 244 157 261 128 q 215 215 228 186 q 194 253 201 243 q 169 163 186 214 q 133 68 153 113 q 93 -7 114 24 q 54 -35 72 -37 q 27 13 38 -22 q 10 97 17 49 q 1 197 4 144 q -4 299 -3 250 q -6 387 -6 349 q -6 442 -6 425 q 1 458 -6 451 q 16 468 7 464 q 33 474 25 472 q 46 475 42 475 q 51 465 51 476 q 49 425 51 453 q 45 351 47 397 q 46 240 43 306 q 47 188 46 221 q 51 125 49 156 q 57 73 53 94 q 69 53 61 51 z "},"X":{"ha":440,"x_min":-49,"x_max":442,"o":"m 319 828 q 271 596 296 710 q 222 386 246 482 q 260 332 240 360 q 305 272 281 304 q 360 201 329 239 q 428 118 390 164 q 434 68 442 81 q 415 57 426 56 q 375 102 394 79 q 331 153 356 125 q 277 217 307 181 q 208 306 247 254 q 183 190 199 254 q 151 67 167 126 q 120 -42 135 7 q 99 -110 106 -90 q 72 -122 83 -121 q 61 -115 61 -124 q 91 11 79 -40 q 111 103 103 63 q 126 181 119 144 q 144 267 133 218 q 155 319 151 300 q 160 350 158 339 q 160 365 161 363 q 92 476 124 425 q 35 572 61 526 q -11 658 10 617 q -46 743 -32 700 q -46 756 -49 753 q -37 758 -43 760 q -24 750 -31 756 q -11 736 -17 744 q 32 672 14 701 q 70 609 50 642 q 117 538 90 576 q 186 444 144 499 q 222 579 207 522 q 247 678 236 636 q 263 750 257 721 q 274 803 269 779 q 284 824 276 817 q 300 834 292 832 q 314 834 308 836 q 319 828 319 832 z "},"x":{"ha":333,"x_min":-22,"x_max":275,"o":"m 4 494 q 38 449 22 471 q 70 403 54 426 q 104 351 86 379 q 146 285 122 322 q 172 360 161 325 q 189 439 183 394 q 205 444 192 450 q 226 435 218 439 q 228 407 231 425 q 219 369 225 389 q 206 333 213 350 q 196 306 199 315 q 190 290 193 299 q 183 271 186 281 q 175 249 179 260 q 236 113 207 171 q 275 26 265 56 q 259 23 275 17 q 231 40 243 29 q 194 107 214 75 q 154 179 175 139 q 137 134 147 160 q 115 81 126 108 q 93 28 104 54 q 74 -21 82 1 q 55 -38 63 -35 q 28 -35 47 -42 q 67 63 53 26 q 92 126 82 100 q 108 175 101 151 q 125 235 115 199 q 91 287 110 256 q 53 349 72 318 q 17 408 35 381 q -12 449 0 436 q -19 481 -22 463 q 4 494 -15 499 z "},"Y":{"ha":285,"x_min":-64,"x_max":296,"o":"m 263 388 q 232 228 250 315 q 194 60 214 140 q 157 -81 175 -19 q 125 -160 139 -142 q 90 -158 108 -162 q 79 -139 71 -154 q 131 0 106 -81 q 174 169 151 69 q 213 403 197 269 q 168 413 189 403 q 129 438 147 424 q 94 471 111 453 q 64 506 78 489 q 22 578 43 532 q -18 675 0 624 q -48 777 -36 726 q -64 863 -60 828 q -56 872 -64 869 q -37 875 -49 875 q -15 873 -26 875 q 6 869 -3 871 q 55 645 19 729 q 126 515 90 561 q 219 439 169 461 q 234 574 229 497 q 240 720 239 650 q 240 842 242 790 q 238 904 239 893 q 259 918 247 918 q 294 908 271 918 q 295 824 296 871 q 292 726 294 776 q 285 623 289 675 q 278 526 282 571 q 270 444 274 481 q 263 388 267 407 z "},"y":{"ha":425,"x_min":-3,"x_max":461,"o":"m 106 97 q 178 145 138 82 q 244 350 219 208 q 253 350 244 351 q 272 346 263 349 q 290 339 282 343 q 299 332 299 335 q 296 282 299 311 q 290 218 293 253 q 285 144 286 183 q 285 67 283 106 q 365 115 322 99 q 446 136 407 132 q 460 127 460 129 q 454 119 461 125 q 362 78 401 104 q 286 19 322 51 q 288 -76 286 -25 q 289 -179 289 -128 q 288 -281 289 -231 q 283 -371 288 -331 q 269 -440 278 -411 q 244 -478 260 -468 q 219 -487 233 -485 q 190 -487 204 -489 q 162 -481 175 -486 q 140 -468 149 -476 q 103 -401 114 -442 q 92 -311 92 -360 q 103 -211 92 -262 q 133 -112 114 -160 q 178 -27 151 -65 q 238 32 206 11 q 242 179 242 107 q 201 101 228 143 q 136 36 175 60 q 63 40 93 17 q 26 113 33 64 q 15 207 19 169 q 8 278 11 244 q 3 347 6 311 q -3 438 1 383 q 18 440 4 442 q 39 431 32 438 q 44 408 43 431 q 47 351 46 386 q 51 276 49 317 q 60 198 54 235 q 77 133 67 161 q 106 97 88 106 m 247 -19 q 230 -38 239 -29 q 213 -58 221 -47 q 178 -118 194 -81 q 149 -200 161 -156 q 133 -290 138 -244 q 135 -370 129 -335 q 161 -426 142 -406 q 215 -442 181 -446 q 238 -410 229 -439 q 249 -338 246 -381 q 253 -245 253 -296 q 253 -148 254 -194 q 249 -67 251 -101 q 247 -19 247 -32 z "},"Z":{"ha":549,"x_min":-15,"x_max":607,"o":"m 417 893 q 397 753 413 831 q 361 594 382 676 q 317 432 340 513 q 274 283 294 351 q 240 165 254 215 q 224 93 226 114 q 317 159 274 128 q 403 220 361 190 q 490 281 446 250 q 583 347 533 313 q 605 356 603 358 q 596 333 607 354 q 490 249 544 294 q 382 159 435 204 q 282 74 329 114 q 201 8 235 35 q 155 -6 169 -8 q 147 44 140 -3 q 201 236 171 143 q 261 424 232 329 q 315 617 290 518 q 353 825 340 715 q 319 813 353 838 q 237 742 286 789 q 131 636 188 696 q 29 519 75 576 q 4 519 14 515 q -10 532 -6 524 q -15 549 -15 540 q -11 563 -15 558 q 51 622 10 579 q 144 715 93 665 q 249 815 196 765 q 349 894 303 864 q 383 914 369 910 q 403 915 396 918 q 414 906 411 913 q 417 893 417 899 z "},"z":{"ha":500,"x_min":10,"x_max":508,"o":"m 319 421 q 340 412 335 422 q 333 374 344 401 q 278 236 307 303 q 217 107 250 169 q 276 133 249 119 q 333 161 304 147 q 394 189 363 175 q 463 215 425 203 q 492 217 485 215 q 508 204 500 219 q 415 163 458 186 q 331 113 372 139 q 249 59 290 86 q 164 10 208 32 q 149 13 157 10 q 135 22 142 17 q 126 33 129 28 q 125 42 122 39 q 170 119 146 78 q 216 203 194 161 q 255 288 238 246 q 279 369 272 331 q 251 360 272 372 q 196 331 229 349 q 120 294 163 314 q 28 263 78 275 q 20 262 25 263 q 13 263 15 261 q 13 271 10 265 q 31 288 17 276 q 82 317 46 296 q 161 363 118 339 q 247 403 204 386 q 319 421 290 421 z "},"?":{"ha":589,"x_min":96,"x_max":511,"o":"m 269 229 q 252 224 260 221 q 238 233 244 226 q 226 248 232 239 q 214 261 219 257 q 223 304 206 276 q 273 381 240 332 q 349 506 306 431 q 433 692 392 581 q 461 778 454 743 q 467 833 468 813 q 458 865 465 854 q 442 879 450 875 q 342 892 392 906 q 250 844 293 879 q 173 758 207 808 q 119 660 139 708 q 104 719 96 678 q 144 806 113 760 q 224 890 175 851 q 331 943 274 929 q 401 951 367 951 q 461 935 436 950 q 499 888 486 919 q 504 801 511 856 q 478 698 497 756 q 434 580 460 640 q 380 460 408 519 q 328 353 351 401 q 288 272 304 304 q 269 229 271 239 m 297 69 q 303 52 303 58 q 303 40 304 46 q 299 28 301 35 q 293 10 296 21 q 256 4 269 4 q 218 10 242 4 q 210 47 206 32 q 228 69 214 63 q 260 76 242 76 q 297 69 279 76 z "},",":{"ha":160,"x_min":-53,"x_max":107,"o":"m 64 68 q 88 67 79 71 q 107 61 96 64 q 82 -1 101 35 q 38 -69 63 -37 q -9 -124 14 -101 q -46 -146 -32 -146 q -41 -123 -53 -140 q -10 -78 -29 -106 q 30 -15 8 -51 q 64 68 51 22 z "},":":{"ha":167,"x_min":38,"x_max":131,"o":"m 40 313 q 60 342 44 331 q 91 354 75 353 q 119 347 107 356 q 128 317 131 338 q 115 297 126 306 q 90 286 104 289 q 61 289 75 283 q 40 313 47 294 m 128 83 q 121 56 128 68 q 102 38 114 44 q 75 30 90 31 q 43 38 60 29 q 47 74 38 60 q 71 93 56 88 q 102 96 86 99 q 128 83 118 93 z "},";":{"ha":224,"x_min":-21,"x_max":167,"o":"m 96 85 q 106 95 97 90 q 126 101 115 100 q 149 99 138 103 q 165 85 160 96 q 135 22 158 58 q 83 -49 111 -15 q 27 -106 54 -83 q -14 -129 0 -129 q -9 -106 -21 -124 q 22 -62 3 -89 q 62 2 40 -35 q 96 85 83 39 m 83 343 q 101 372 88 361 q 130 385 115 383 q 156 378 144 386 q 164 349 167 369 q 152 329 163 338 q 128 318 142 321 q 102 321 115 315 q 83 343 89 326 z "},"\\":{"ha":478,"x_min":106,"x_max":410,"o":"m 410 -65 q 390 -75 403 -75 q 363 -71 378 -75 q 342 -14 356 -61 q 311 104 329 33 q 273 262 293 175 q 231 439 253 349 q 190 615 210 529 q 152 772 169 701 q 123 888 135 842 q 106 944 111 935 q 112 963 106 954 q 128 980 118 972 q 148 991 138 988 q 167 993 158 994 q 201 806 179 913 q 249 585 224 699 q 303 359 275 471 q 353 156 331 247 q 392 6 376 65 q 410 -65 407 -54 z "},"/":{"ha":271,"x_min":33,"x_max":274,"o":"m 81 -93 q 35 -79 63 -103 q 40 -18 33 -67 q 57 102 46 31 q 83 262 68 174 q 115 441 99 350 q 146 620 131 532 q 173 779 161 708 q 192 897 185 850 q 197 956 199 944 q 211 970 201 964 q 232 979 221 976 q 255 982 243 982 q 274 976 267 982 q 231 790 253 897 q 189 569 210 683 q 149 340 168 454 q 116 134 131 226 q 92 -20 101 42 q 81 -93 82 -82 z "},".":{"ha":133,"x_min":24,"x_max":107,"o":"m 24 32 q 42 61 28 50 q 70 74 56 72 q 96 67 85 75 q 104 38 107 58 q 92 18 103 26 q 69 7 82 10 q 42 10 56 4 q 24 32 29 15 z "},"":{"ha":281,"x_min":33,"x_max":247,"o":"m 190 913 q 208 861 196 888 q 228 812 219 835 q 242 773 238 789 q 240 753 247 757 q 213 767 226 749 q 186 813 199 785 q 163 871 174 840 q 146 922 151 901 q 167 929 156 935 q 190 913 179 924 m 44 967 q 63 969 58 969 q 81 961 67 968 q 92 890 85 922 q 110 829 100 858 q 132 772 119 800 q 158 713 144 744 q 136 706 154 704 q 110 711 118 707 q 87 773 99 736 q 65 844 75 810 q 49 901 56 878 q 39 925 42 925 q 34 951 35 940 q 44 967 33 963 z "},"":{"ha":257,"x_min":53,"x_max":247,"o":"m 53 822 q 74 871 65 844 q 92 921 83 897 q 108 960 100 944 q 124 975 115 975 q 135 947 136 969 q 124 894 133 924 q 103 835 115 865 q 81 785 90 804 q 60 794 65 782 q 53 822 54 807 m 125 683 q 110 694 113 690 q 103 713 107 697 q 141 773 125 744 q 169 829 157 801 q 190 886 181 857 q 210 949 199 915 q 220 947 214 950 q 232 938 226 943 q 242 928 238 933 q 247 918 246 922 q 223 856 239 890 q 192 790 207 821 q 165 735 176 758 q 157 711 154 713 q 143 688 150 696 q 125 683 136 679 z "},"$":{"ha":719,"x_min":133,"x_max":668,"o":"m 269 846 q 281 765 274 808 q 296 674 289 722 q 319 685 310 681 q 335 692 328 689 q 349 698 342 694 q 367 706 356 701 q 359 747 365 726 q 354 786 353 768 q 381 784 368 786 q 399 778 393 782 q 400 752 399 767 q 406 714 401 738 l 440 714 q 472 711 456 713 q 504 703 489 710 q 515 688 513 690 q 506 683 517 686 q 467 683 490 686 q 411 672 444 679 q 418 592 415 624 q 424 535 421 561 q 430 483 426 510 q 438 415 433 456 q 594 388 532 403 q 663 347 656 374 q 642 277 668 306 q 578 231 615 249 q 506 203 542 213 q 460 190 471 193 q 469 111 467 140 q 471 57 472 82 q 442 58 456 51 q 429 68 428 65 q 426 128 426 99 q 422 183 425 158 q 372 178 394 179 q 336 178 350 176 q 342 72 339 114 q 347 -8 344 31 q 326 -6 338 -8 q 308 1 315 -4 q 304 30 306 8 q 302 78 303 51 q 300 131 301 104 q 299 178 299 158 q 274 181 292 178 q 236 193 257 185 q 195 216 215 201 q 161 256 175 231 q 159 265 158 261 q 163 268 160 269 q 196 250 176 260 q 234 233 215 240 q 269 222 253 225 q 293 221 286 218 q 292 268 292 251 q 291 299 292 285 q 289 332 290 314 q 286 383 288 350 q 229 401 257 392 q 180 424 201 410 q 146 463 158 439 q 135 522 133 486 q 138 540 135 529 q 155 567 142 551 q 194 604 168 583 q 264 653 219 625 q 256 692 260 675 q 250 727 253 710 q 242 765 247 744 q 231 818 238 786 q 269 846 233 849 m 306 628 q 311 573 310 593 q 314 534 313 553 q 317 492 315 515 q 324 425 318 468 q 358 419 343 421 q 399 415 372 418 q 392 476 394 451 q 386 525 389 500 q 379 581 383 550 q 369 661 375 611 q 353 654 360 657 q 340 649 346 651 q 326 641 333 646 q 306 628 318 636 m 178 490 q 193 469 185 476 q 214 456 201 461 q 243 445 226 450 q 282 432 260 440 q 278 483 279 467 q 277 514 278 500 q 275 546 276 528 q 271 601 274 564 q 251 593 268 601 q 215 569 233 585 q 183 534 196 554 q 178 490 171 514 m 332 218 q 357 218 347 218 q 375 219 367 218 q 392 222 383 221 q 415 226 401 224 q 410 299 411 267 q 404 368 410 332 q 361 373 381 371 q 325 379 342 375 q 326 331 325 349 q 327 297 326 313 q 329 265 328 282 q 332 218 331 247 m 456 233 q 509 247 479 239 q 564 267 539 256 q 605 294 589 279 q 618 329 621 310 q 598 346 615 340 q 555 355 581 351 q 499 360 529 358 q 444 367 469 363 q 446 340 446 350 q 447 319 446 331 q 449 289 447 308 q 456 233 451 269 z "},"#":{"ha":774,"x_min":85,"x_max":690,"o":"m 457 518 q 522 529 493 524 q 576 539 551 535 q 622 546 600 543 q 665 549 643 549 q 688 530 685 533 q 681 519 690 526 q 597 500 654 514 q 461 469 539 486 q 465 415 463 439 q 467 360 468 390 q 515 371 496 367 q 549 378 533 375 q 581 383 565 381 q 621 388 597 385 q 645 385 640 389 q 654 367 650 382 q 627 347 647 354 q 579 334 607 340 q 522 322 551 328 q 467 306 492 315 q 471 252 468 274 q 476 210 474 231 q 479 167 478 190 q 481 106 481 143 q 457 110 463 107 q 444 129 451 114 q 432 174 436 149 q 426 225 428 200 q 423 269 424 250 q 421 296 422 289 q 374 285 396 290 q 332 276 353 281 q 335 231 332 257 q 340 182 338 206 q 344 139 343 158 q 340 113 344 119 q 316 111 325 108 q 300 119 307 114 q 297 156 297 136 q 295 197 296 176 q 294 236 294 218 q 292 265 293 254 q 256 258 275 263 q 216 248 236 253 q 179 240 196 243 q 153 239 163 238 q 145 269 144 260 q 160 285 146 279 q 206 296 175 290 q 286 313 236 301 q 282 349 283 338 q 280 371 281 361 q 278 392 279 381 q 274 426 276 403 q 174 412 218 418 q 93 407 131 406 q 85 422 86 417 q 94 433 85 426 q 128 450 107 443 q 174 463 150 457 q 222 474 197 469 q 267 481 247 478 q 260 544 263 517 q 254 597 257 572 q 249 644 251 621 q 242 696 246 668 q 265 700 260 699 q 286 694 271 701 q 294 664 290 686 q 303 613 299 642 q 312 550 307 583 q 321 486 317 517 q 353 496 338 492 q 381 503 368 500 q 408 508 396 507 q 404 559 407 522 q 397 636 401 596 q 388 710 393 676 q 375 750 382 743 q 406 776 396 774 q 425 763 417 778 q 442 707 436 743 q 450 633 447 671 q 454 562 453 594 q 457 518 456 529 m 322 435 q 325 400 324 418 q 327 367 326 382 q 328 340 328 351 q 329 326 329 329 q 372 338 347 333 q 417 349 397 342 q 415 373 415 363 q 415 395 415 383 q 413 421 414 407 q 410 456 413 435 q 379 449 394 453 q 351 443 364 446 q 322 435 336 439 z "},"\"":{"ha":238,"x_min":31,"x_max":196,"o":"m 175 882 q 180 828 175 857 q 189 776 185 800 q 194 735 193 751 q 189 715 196 718 q 164 735 174 714 q 148 785 154 756 q 138 848 142 815 q 133 903 135 881 q 156 905 146 913 q 175 882 167 897 m 46 968 q 64 967 60 968 q 79 954 68 965 q 75 883 75 915 q 78 819 75 850 q 88 759 82 789 q 100 696 93 729 q 76 693 93 689 q 51 704 58 697 q 43 770 46 732 q 38 843 40 808 q 35 903 36 878 q 31 929 33 928 q 33 956 31 944 q 46 968 35 967 z "},"%":{"ha":686,"x_min":21,"x_max":629,"o":"m 597 303 q 622 274 614 296 q 619 215 629 251 q 601 153 610 188 q 577 92 592 119 q 540 49 563 64 q 482 42 518 33 q 463 50 478 44 q 444 63 449 56 q 434 105 433 86 q 440 150 435 124 q 450 197 443 169 q 467 244 457 224 q 597 303 494 310 m 492 101 q 513 101 500 93 q 538 126 525 110 q 560 165 550 143 q 574 208 569 188 q 577 242 579 228 q 561 256 575 256 q 526 244 546 260 q 492 204 506 229 q 475 151 478 179 q 492 101 472 122 m 350 -53 l 307 -53 q 285 -39 296 -53 q 285 19 274 -25 q 330 208 308 110 q 371 406 351 306 q 410 604 390 506 q 450 796 429 703 q 395 766 422 783 q 340 730 368 749 q 284 694 313 711 q 226 667 256 676 q 199 601 215 633 q 162 543 183 568 q 112 503 140 518 q 46 492 83 489 q 23 528 25 493 q 31 607 21 563 q 58 694 40 651 q 96 754 76 738 q 124 774 113 775 q 154 775 136 772 q 176 774 161 776 q 208 766 192 771 q 235 752 224 761 q 249 732 247 743 q 356 776 301 757 q 460 833 410 796 q 468 879 467 861 q 472 909 469 897 q 482 928 475 921 q 506 943 489 936 q 521 946 513 946 q 561 935 538 946 q 562 924 561 926 q 563 917 563 921 q 560 902 563 913 q 551 867 558 892 q 511 788 531 842 q 474 665 492 735 q 441 516 457 596 q 412 356 425 436 q 388 202 399 276 q 369 72 378 128 q 356 -19 361 15 q 350 -53 351 -53 m 82 546 q 144 592 117 560 q 182 657 172 625 q 178 710 192 689 q 118 725 165 732 q 86 665 100 697 q 66 604 72 632 q 63 559 60 576 q 82 546 67 542 z "},"&":{"ha":581,"x_min":49,"x_max":550,"o":"m 251 317 q 270 281 261 297 q 290 249 279 265 q 313 213 300 232 q 344 165 325 193 q 374 227 361 196 q 398 284 388 258 q 417 328 408 310 q 436 350 426 346 q 453 329 443 349 q 468 297 463 310 q 444 260 453 279 q 426 221 435 242 q 405 175 417 200 q 374 119 393 150 q 401 74 389 92 q 425 42 414 56 q 447 15 436 28 q 469 -11 457 3 q 509 -47 492 -37 q 536 -58 526 -56 q 548 -65 546 -61 q 544 -82 550 -68 q 474 -70 503 -83 q 424 -35 446 -57 q 385 15 403 -14 q 350 74 368 43 q 310 39 335 57 q 258 11 286 21 q 203 5 231 1 q 153 35 175 8 q 144 139 129 71 q 194 321 160 207 q 134 458 167 383 q 74 613 101 532 q 49 735 49 672 q 71 845 49 797 q 137 915 93 893 q 244 915 181 938 q 320 853 294 894 q 352 759 346 813 q 350 644 358 706 q 326 524 342 583 q 290 410 310 464 q 251 317 269 356 m 265 843 q 247 854 260 847 q 219 867 235 861 q 185 874 203 872 q 153 869 168 875 q 114 836 128 858 q 96 785 100 814 q 95 724 92 757 q 107 658 99 692 q 128 585 115 626 q 157 505 142 544 q 189 432 172 465 q 222 381 206 399 q 251 450 235 410 q 283 535 268 490 q 307 626 297 579 q 317 714 317 672 q 306 789 318 756 q 265 843 294 822 m 199 57 q 228 47 210 44 q 264 60 246 50 q 297 87 282 71 q 318 118 313 103 q 290 159 301 143 q 270 188 279 175 q 251 215 261 201 q 225 251 240 229 q 210 208 221 235 q 192 154 200 182 q 184 100 185 126 q 199 57 183 74 z "},"'":{"ha":157,"x_min":32,"x_max":99,"o":"m 81 972 q 96 959 93 969 q 99 933 99 949 q 95 910 96 933 q 94 853 94 886 q 92 785 93 821 q 85 722 90 749 q 58 713 76 717 q 32 715 39 708 q 42 776 38 747 q 50 833 47 804 q 51 892 53 861 q 44 960 50 922 q 60 971 56 969 q 81 972 65 972 z "},"*":{"ha":290,"x_min":32,"x_max":253,"o":"m 126 863 q 132 856 129 864 q 138 835 135 847 q 142 810 140 824 q 144 788 144 796 q 161 810 156 799 q 183 846 167 822 q 207 833 197 846 q 197 810 201 818 q 186 798 192 803 q 175 788 181 793 q 163 772 169 782 q 199 777 185 772 q 233 789 214 782 q 253 768 250 793 q 216 754 229 760 q 183 744 203 749 q 196 727 189 733 q 210 715 203 721 q 225 699 217 708 q 242 674 233 690 q 231 672 236 672 q 214 678 225 672 q 184 699 193 689 q 156 719 175 708 q 159 690 158 700 q 160 670 160 679 q 162 651 161 661 q 165 622 163 640 q 145 622 150 619 q 133 636 140 625 q 129 671 133 653 q 125 707 125 689 q 108 685 117 700 q 96 658 99 671 q 82 654 85 651 q 72 660 79 657 q 85 688 81 678 q 93 703 90 697 q 98 713 96 708 q 101 728 100 718 q 87 724 97 728 q 65 717 76 721 q 46 710 54 713 q 36 707 38 707 q 33 722 33 715 q 32 735 33 728 q 64 744 50 738 q 101 750 78 750 q 76 773 90 760 q 49 793 61 786 q 64 803 54 803 q 85 800 74 804 q 106 790 96 796 q 124 779 117 783 q 119 806 121 796 q 117 824 118 817 q 115 835 117 831 q 113 846 114 839 q 115 860 111 857 q 126 863 119 863 z "},"(":{"ha":254,"x_min":50,"x_max":269,"o":"m 242 899 q 269 881 269 906 q 185 750 217 814 q 135 629 153 686 q 111 523 118 572 q 103 436 104 474 q 110 228 99 313 q 139 83 121 143 q 178 -15 157 24 q 214 -86 199 -54 q 221 -114 226 -106 q 201 -132 215 -122 q 158 -58 179 -99 q 121 25 138 -17 q 91 108 104 67 q 71 185 78 149 q 56 281 60 239 q 51 358 51 324 q 51 420 50 392 q 54 474 53 449 q 103 665 72 588 q 163 792 133 743 q 215 866 192 842 q 242 899 238 890 z "},")":{"ha":283,"x_min":28,"x_max":232,"o":"m 56 -117 q 28 -100 28 -126 q 108 33 78 -32 q 153 156 138 97 q 175 263 169 214 q 181 350 181 313 q 167 558 181 474 q 133 701 153 643 q 92 798 114 760 q 53 868 69 836 q 44 896 39 888 q 64 914 50 904 q 109 841 88 881 q 149 760 131 801 q 182 677 168 718 q 204 601 196 636 q 222 506 217 549 q 230 429 228 464 q 231 367 232 394 q 231 314 231 339 q 188 120 215 199 q 132 -8 160 42 q 82 -83 104 -58 q 56 -117 60 -108 z "},"-":{"ha":347,"x_min":21,"x_max":253,"o":"m 246 332 q 251 326 250 332 q 252 313 253 321 q 249 299 251 306 q 246 289 247 292 q 197 290 231 290 q 128 287 164 289 q 63 281 92 285 q 28 272 33 278 q 30 314 21 299 q 61 328 39 329 q 105 328 86 328 q 143 329 124 329 q 186 330 163 329 q 246 332 210 331 z "},"+":{"ha":478,"x_min":29,"x_max":367,"o":"m 360 343 q 365 338 364 343 q 366 324 367 332 q 363 310 365 317 q 360 300 361 303 q 336 301 354 300 q 297 301 318 301 q 253 301 275 301 q 217 300 231 300 q 219 270 218 289 q 222 231 221 251 q 225 190 224 210 q 228 157 226 169 q 222 151 228 153 q 209 150 217 150 q 194 152 201 150 q 185 156 188 154 q 185 179 185 161 q 185 218 185 197 q 184 260 185 239 q 182 297 183 282 q 141 294 165 296 q 94 292 117 293 q 56 288 72 290 q 36 283 39 286 q 39 325 29 310 q 71 339 49 340 q 95 339 79 339 q 128 339 111 339 q 159 340 144 339 q 181 340 174 340 q 177 381 179 356 q 172 430 175 406 q 166 473 169 454 q 161 494 163 492 q 198 499 188 501 q 207 475 208 497 q 208 447 207 467 q 210 407 210 428 q 213 367 211 386 q 214 340 214 349 q 241 340 222 340 q 281 341 260 340 q 324 342 303 342 q 360 343 344 343 z "},"":{"ha":585,"x_min":40,"x_max":522,"o":"m 515 290 q 521 285 519 290 q 522 272 522 279 q 519 257 521 264 q 515 247 517 250 q 468 248 506 247 q 380 247 431 249 q 272 244 329 246 q 167 242 215 243 q 85 237 118 240 q 47 231 51 233 q 50 272 40 257 q 82 286 60 288 q 165 287 107 286 q 288 288 222 288 q 417 288 354 288 q 515 290 479 289 z "},"":{"ha":906,"x_min":54,"x_max":843,"o":"m 836 276 q 842 271 840 276 q 843 258 843 265 q 841 243 843 250 q 838 233 839 236 q 794 234 831 233 q 701 234 757 235 q 578 233 646 233 q 440 231 510 232 q 303 229 369 231 q 183 226 236 228 q 97 222 131 224 q 61 217 64 219 q 64 258 54 243 q 96 272 74 274 q 167 273 113 272 q 297 274 222 274 q 456 274 371 274 q 617 274 540 274 q 753 275 694 275 q 836 276 813 275 z "},"@":{"ha":640,"x_min":57,"x_max":551,"o":"m 411 186 q 374 207 390 186 q 349 256 358 228 q 335 313 339 285 q 333 358 331 342 q 288 296 314 332 q 231 243 263 260 q 177 235 203 229 q 149 269 151 240 q 159 323 147 281 q 194 411 171 365 q 251 492 217 457 q 328 522 285 526 q 363 519 351 519 q 379 501 375 519 q 383 454 383 483 q 381 392 383 425 q 378 328 379 360 q 382 272 378 296 q 398 235 386 247 q 433 231 410 224 q 463 265 447 236 q 488 335 478 294 q 499 423 497 375 q 489 515 501 471 q 447 592 476 558 q 364 642 417 626 q 244 631 294 660 q 160 549 193 603 q 115 425 128 494 q 108 290 101 356 q 123 217 113 257 q 157 144 133 176 q 221 93 181 111 q 324 85 261 75 q 407 103 351 89 q 543 161 463 117 q 542 137 550 156 q 514 110 533 118 q 440 77 478 94 q 363 49 403 60 q 282 36 324 38 q 196 53 240 35 q 122 108 151 69 q 77 196 93 146 q 59 304 61 246 q 68 419 57 363 q 92 504 76 463 q 131 581 108 546 q 183 642 154 617 q 247 678 213 667 q 350 685 304 694 q 429 657 396 675 q 481 620 463 639 q 503 600 500 601 q 526 561 515 589 q 544 500 538 533 q 551 433 550 467 q 543 378 551 400 q 503 280 521 317 q 469 222 485 243 q 438 194 453 201 q 411 186 424 188 m 196 279 q 203 276 200 278 q 208 273 206 274 q 216 275 211 272 q 231 285 221 278 q 301 385 279 338 q 317 471 324 432 q 287 475 303 483 q 255 446 271 467 q 225 398 239 425 q 202 345 211 371 q 190 301 193 319 q 196 279 188 282 z "},"=":{"ha":478,"x_min":72,"x_max":375,"o":"m 356 342 q 361 336 360 342 q 362 323 363 331 q 359 308 361 315 q 356 299 357 301 q 323 299 346 299 q 271 297 300 299 q 210 294 242 296 q 151 290 179 292 q 104 285 124 288 q 79 282 85 283 q 82 324 72 308 q 114 338 92 339 q 224 339 165 339 q 356 342 283 339 m 92 206 q 86 211 88 206 q 85 224 85 217 q 88 238 86 231 q 92 249 90 246 q 151 247 107 246 q 244 251 196 249 q 368 257 300 254 q 365 216 375 231 q 333 203 354 201 q 222 205 281 204 q 92 206 163 206 z "},"":{"ha":644,"x_min":75,"x_max":565,"o":"m 368 593 q 399 581 374 589 q 455 551 425 572 q 513 495 485 531 q 551 401 540 460 q 537 279 558 335 q 477 185 515 224 q 390 128 439 146 q 290 119 340 111 q 190 156 233 131 q 107 228 146 181 q 85 315 89 265 q 96 415 82 365 q 143 508 110 465 q 235 576 176 551 q 294 595 264 590 q 368 593 324 600 m 147 479 q 135 454 143 472 q 122 409 128 436 q 117 348 117 382 q 128 276 117 314 q 169 215 146 239 q 216 178 193 192 q 259 160 239 165 q 290 154 279 156 q 360 154 328 147 q 419 176 393 161 q 465 213 446 192 q 496 258 485 235 q 518 340 515 294 q 496 444 521 386 q 472 476 490 457 q 424 515 453 496 q 361 547 396 533 q 289 560 326 560 q 215 542 251 560 q 147 479 178 524 m 324 110 q 289 114 306 110 q 183 151 226 125 q 103 224 139 176 q 77 329 79 272 q 94 440 75 386 q 140 517 108 476 q 233 585 171 557 q 275 600 256 594 q 321 606 294 606 q 369 599 339 606 l 372 599 q 385 593 376 594 q 425 576 400 588 q 476 543 450 565 q 524 487 501 521 q 557 401 547 453 q 548 287 565 342 q 492 192 531 232 q 414 131 458 151 q 324 110 369 110 m 321 590 q 278 585 297 590 q 239 571 260 581 q 151 507 181 546 q 108 433 121 468 q 92 330 90 385 q 115 232 93 275 q 190 163 149 188 q 290 128 232 138 q 306 125 297 126 q 324 124 315 124 q 408 144 367 124 q 482 200 450 164 q 534 291 518 240 q 543 399 550 342 q 513 480 535 447 q 467 533 492 513 q 418 565 442 554 q 381 581 394 575 q 365 585 369 585 q 321 590 344 590 m 324 144 q 306 144 315 144 q 289 146 297 144 q 257 153 278 149 q 213 172 236 158 q 164 210 189 186 q 121 275 139 235 q 109 349 108 314 q 116 413 110 385 q 130 459 122 440 q 142 483 138 478 q 208 547 171 526 q 290 567 246 567 q 364 553 328 567 q 429 520 400 539 q 478 481 458 501 q 503 449 497 461 q 503 254 547 342 q 477 215 493 235 q 438 180 461 196 q 387 154 415 164 q 324 144 358 144 m 290 551 q 154 475 207 551 q 142 453 150 471 q 129 408 135 435 q 123 349 124 382 q 133 279 122 315 q 174 219 151 242 q 219 185 197 197 q 261 167 242 172 q 290 161 281 163 q 308 160 300 161 q 324 158 315 158 q 382 168 356 158 q 429 192 408 178 q 465 225 450 207 q 490 261 481 243 q 511 345 513 301 q 490 442 510 389 q 466 473 485 454 q 419 509 447 492 q 358 539 392 526 q 290 551 325 551 m 238 464 q 244 463 243 465 q 247 456 246 460 q 249 449 247 453 q 254 444 250 444 q 293 458 271 456 q 337 457 315 461 q 374 444 358 453 q 393 425 390 436 q 392 391 399 404 q 372 369 385 378 q 342 353 358 361 q 315 336 326 346 q 357 324 340 325 q 387 327 374 324 q 413 336 400 331 q 443 344 425 342 q 472 335 468 338 q 476 326 476 333 q 424 311 453 321 q 367 295 394 301 q 314 290 339 289 q 272 306 289 290 q 273 285 272 292 q 274 274 274 279 q 274 260 274 269 q 274 231 274 251 q 258 230 267 232 q 243 225 250 228 q 232 223 236 222 q 228 232 228 224 q 228 279 228 250 q 228 340 229 308 q 223 401 226 371 q 211 450 219 431 q 224 458 221 457 q 238 464 226 460 m 264 418 q 261 392 261 403 q 268 350 261 382 q 301 360 282 353 q 336 378 321 368 q 358 399 351 388 q 351 418 364 410 q 309 429 331 433 q 264 418 288 425 m 233 215 q 224 219 228 215 q 219 232 219 224 l 219 238 q 220 285 219 256 q 220 344 221 314 q 216 401 219 374 q 204 446 213 429 l 203 453 l 207 456 q 219 464 217 463 q 233 472 222 465 l 235 472 q 251 467 247 475 q 254 456 254 458 l 254 454 q 283 464 268 461 q 308 467 297 467 q 365 457 336 467 q 399 428 394 447 q 392 378 408 394 q 354 353 375 363 q 342 345 347 350 q 329 338 336 340 q 349 332 340 335 q 364 329 357 329 q 384 333 375 329 q 403 340 393 338 q 442 353 415 346 l 443 353 l 446 353 q 477 342 469 346 q 485 326 485 338 l 485 319 l 478 318 q 429 306 460 313 q 374 290 401 296 q 321 283 347 283 q 299 285 308 283 q 281 292 290 286 q 282 273 282 279 q 281 244 282 267 l 281 219 l 269 222 q 260 223 267 224 q 247 219 254 222 q 240 217 243 218 q 233 215 236 215 m 219 446 q 230 399 226 426 q 234 342 233 371 q 234 285 235 313 q 233 238 233 257 l 233 231 q 238 231 235 231 q 243 232 240 232 q 267 238 253 238 l 267 244 q 268 273 268 267 q 267 292 268 279 l 264 322 l 276 311 q 321 297 290 297 q 372 303 346 297 q 425 318 399 310 q 468 329 453 328 q 459 333 465 332 q 443 336 453 333 q 424 331 432 333 q 408 326 417 329 q 388 319 397 324 q 364 315 378 315 q 313 328 343 315 l 303 332 l 311 340 q 347 364 326 356 q 381 388 369 376 q 385 424 392 400 q 360 443 382 433 q 308 453 338 453 q 283 450 297 453 q 258 438 269 447 l 254 438 l 251 438 q 242 444 244 438 q 239 454 239 450 l 239 458 q 229 453 232 454 q 219 446 226 451 m 264 342 l 263 349 q 254 392 254 379 q 256 419 254 404 l 258 424 l 269 428 q 293 433 282 431 q 317 436 304 436 q 356 424 336 436 q 367 411 365 417 q 368 401 368 406 q 354 381 365 390 q 327 363 343 371 q 295 351 311 356 q 269 344 279 346 l 264 342 m 269 414 q 268 392 268 401 q 274 358 268 382 q 325 378 299 365 q 354 403 351 392 q 353 407 354 406 q 347 411 353 408 q 313 422 332 422 q 272 414 293 421 l 269 414 z "},"":{"ha":525,"x_min":57,"x_max":465,"o":"m 301 533 q 328 523 307 531 q 373 499 349 515 q 420 451 397 482 q 453 372 443 421 q 442 270 460 317 q 393 192 425 224 q 319 144 361 160 q 235 138 276 129 q 151 167 188 146 q 83 228 115 188 q 65 301 68 260 q 73 385 61 343 q 113 463 85 426 q 190 519 142 499 q 239 535 215 531 q 301 533 263 540 m 115 438 q 106 417 113 432 q 95 378 100 401 q 90 327 90 356 q 100 268 90 299 q 134 217 114 236 q 174 187 154 197 q 210 172 193 176 q 235 167 226 168 q 294 167 267 161 q 344 185 322 172 q 383 215 367 197 q 408 253 399 233 q 426 322 424 285 q 408 408 428 360 q 370 452 401 425 q 295 494 339 479 q 203 501 251 510 q 115 438 154 493 m 263 129 q 249 130 256 129 q 235 132 242 131 q 147 163 183 142 q 78 224 110 183 q 58 313 58 264 q 74 406 57 361 q 110 469 85 435 q 188 526 136 503 q 224 538 207 533 q 261 543 240 543 q 301 538 283 543 l 306 538 q 315 533 308 535 q 348 519 328 529 q 390 492 368 510 q 432 444 413 474 q 460 372 451 415 q 451 277 465 322 q 406 197 438 232 q 340 147 378 164 q 263 129 303 129 m 261 532 q 226 527 242 532 q 192 514 211 522 q 119 461 143 494 q 85 400 96 428 q 71 313 69 360 q 89 231 72 267 q 153 173 118 194 q 236 144 188 151 q 249 142 243 143 q 263 140 256 140 q 334 158 299 140 q 397 204 369 175 q 440 281 426 239 q 449 371 454 324 q 422 438 440 411 q 383 483 404 465 q 342 509 363 500 q 310 522 322 518 q 300 526 303 526 q 279 531 289 529 q 261 532 269 532 m 264 158 q 250 158 257 158 q 235 160 243 158 q 209 166 226 161 q 172 182 192 171 q 131 213 151 193 q 93 267 110 233 q 84 329 83 300 q 90 382 85 358 q 102 421 96 406 q 111 440 108 436 q 235 511 160 511 q 297 499 267 511 q 352 472 328 488 q 393 440 376 457 q 414 413 410 422 q 414 250 449 322 q 359 188 397 218 q 264 158 321 158 m 235 499 q 121 435 168 499 q 112 415 118 431 q 101 378 106 400 q 97 328 97 356 q 106 271 97 300 q 139 220 119 239 q 177 191 158 201 q 212 176 196 181 q 236 171 228 172 q 250 170 243 171 q 264 169 257 169 q 353 197 318 169 q 404 256 389 225 q 403 407 438 322 q 383 433 399 417 q 344 463 367 449 q 292 488 321 478 q 235 499 264 499 m 300 407 q 231 368 251 397 q 204 306 211 339 q 206 288 203 292 q 225 275 210 283 q 294 297 269 278 q 333 346 319 315 q 344 340 340 343 q 354 335 349 338 q 324 285 347 308 q 271 250 300 263 q 213 239 242 238 q 168 265 185 240 q 168 322 161 296 q 189 367 175 347 q 218 402 203 388 q 243 425 233 417 q 262 430 251 426 q 282 433 272 433 q 297 426 292 432 q 300 407 303 421 z "},"":{"ha":308,"x_min":-76,"x_max":290,"o":"m 99 793 q 117 828 113 817 q 131 854 122 839 q 151 854 136 861 q 161 823 154 843 q 183 781 168 803 q 200 788 194 782 q 209 803 206 794 q 215 820 213 811 q 221 838 217 829 q 228 850 225 849 q 243 842 232 851 q 258 792 247 818 q 288 760 268 767 q 288 744 290 747 q 279 735 286 740 q 257 738 264 732 q 245 751 250 743 q 236 767 240 758 q 225 781 232 775 q 181 742 201 736 q 143 797 161 749 q 133 800 138 807 q 126 778 129 793 q 119 747 122 764 q 114 717 115 729 q 101 712 103 711 q 86 711 100 713 q 81 751 82 726 q 78 796 81 775 q 65 826 75 817 q 31 824 54 836 q 38 783 36 803 q 42 750 39 764 q 47 694 50 710 q 32 678 43 678 q 19 753 25 722 q 3 814 14 783 q -31 806 -17 813 q -71 801 -46 799 q -71 829 -76 815 q -36 834 -53 829 q -3 845 -19 839 q 32 858 14 851 q 69 867 50 864 q 78 856 74 858 q 85 849 82 854 q 92 833 89 844 q 99 793 94 821 l 99 793 z "},"":{"ha":176,"x_min":40,"x_max":144,"o":"m 113 864 q 134 856 124 864 q 144 824 144 847 q 142 793 143 808 q 135 765 140 778 q 117 742 129 751 q 83 732 106 733 q 74 733 81 732 q 61 736 68 733 q 47 753 51 742 q 41 778 42 764 q 42 804 40 792 q 46 824 43 817 q 70 853 51 840 q 113 864 89 867 m 79 757 q 101 763 92 750 q 115 793 111 775 q 117 827 119 811 q 103 844 115 843 q 78 837 89 847 q 64 811 68 826 q 63 780 60 796 q 79 757 65 764 z "},"":{"ha":419,"x_min":88,"x_max":207,"o":"m 160 368 q 190 353 172 367 q 207 321 207 340 q 194 275 207 296 q 146 254 182 254 q 136 256 143 256 q 121 260 129 256 q 93 288 99 271 q 94 321 88 304 q 116 356 100 340 q 160 368 132 371 z "},"":{"ha":635,"x_min":76,"x_max":486,"o":"m 76 804 q 110 843 90 828 q 153 860 126 856 q 215 844 179 864 q 291 821 253 826 q 363 817 329 815 q 419 824 396 818 q 450 832 443 829 q 467 837 458 836 q 481 835 476 838 q 484 826 486 832 q 469 811 482 821 q 427 787 450 799 q 378 769 404 775 q 326 763 353 763 q 274 776 300 764 q 194 807 222 799 q 151 814 167 815 q 128 805 136 813 q 110 789 119 797 l 76 804 z "},"~":{"ha":463,"x_min":82,"x_max":407,"o":"m 82 253 q 108 283 93 272 q 142 297 122 293 q 192 285 163 300 q 251 265 221 269 q 308 263 282 261 q 353 268 335 264 q 378 275 372 272 q 392 278 385 278 q 403 277 399 279 q 405 270 407 275 q 393 258 403 265 q 360 240 378 249 q 322 225 342 231 q 280 220 301 219 q 238 231 258 221 q 175 255 197 249 q 141 260 153 261 q 123 253 129 260 q 108 240 117 247 l 82 253 z "},"_":{"ha":553,"x_min":40,"x_max":497,"o":"m 489 -96 q 494 -109 497 -96 q 489 -128 492 -122 q 444 -128 479 -128 q 361 -129 408 -128 q 261 -132 314 -131 q 163 -135 208 -133 q 85 -137 117 -136 q 47 -140 53 -139 q 50 -110 40 -121 q 82 -100 60 -99 q 160 -99 107 -100 q 275 -98 214 -99 q 394 -97 336 -97 q 489 -96 453 -96 z "},"|":{"ha":335,"x_min":126,"x_max":194,"o":"m 185 -276 q 177 -282 185 -281 q 160 -283 169 -283 q 140 -280 150 -282 q 126 -276 131 -278 q 128 -215 128 -267 q 131 -85 129 -162 q 133 89 132 -7 q 134 283 133 185 q 135 476 135 382 q 134 644 135 569 q 132 765 133 718 q 128 814 131 811 q 176 811 158 821 q 193 778 194 801 q 193 717 193 764 q 192 601 193 669 q 190 447 192 532 q 188 273 189 363 q 187 96 188 183 q 185 -66 186 8 q 185 -196 185 -140 q 185 -276 185 -251 z "},"":{"ha":415,"x_min":57,"x_max":349,"o":"m 340 358 q 346 345 349 358 q 340 326 343 332 q 283 326 325 328 q 194 323 240 325 q 110 319 149 321 q 64 315 72 317 q 67 346 57 335 q 99 356 76 357 q 209 357 150 357 q 340 358 268 357 z "},"":{"ha":501,"x_min":126,"x_max":432,"o":"m 369 486 q 378 488 374 490 q 388 481 383 486 q 395 470 392 476 q 400 461 399 464 q 354 407 388 447 q 285 322 321 367 q 222 238 250 276 q 188 192 193 200 q 161 217 164 199 q 178 256 158 236 q 265 360 218 304 q 369 486 313 417 m 131 432 q 131 442 126 436 q 142 453 135 447 q 156 465 149 460 q 167 471 163 469 q 187 451 172 464 q 222 421 201 438 q 265 385 242 404 q 311 347 288 365 q 432 251 367 303 q 395 217 417 222 q 354 231 374 211 q 251 324 306 274 q 131 432 197 374 z "},"":{"ha":393,"x_min":26,"x_max":349,"o":"m 340 310 q 347 306 346 310 q 348 295 349 301 q 344 283 347 289 q 340 274 342 276 q 277 274 324 275 q 179 269 231 272 q 85 264 128 267 q 33 260 42 261 q 37 294 26 282 q 71 307 47 307 q 195 307 129 307 q 340 310 261 307 m 201 414 q 216 406 207 411 q 225 389 225 400 q 219 365 225 375 q 194 354 214 354 q 189 355 192 356 q 181 357 186 354 q 167 372 169 364 q 167 389 164 381 q 179 407 171 399 q 201 414 188 415 m 201 228 q 216 221 207 228 q 225 204 225 214 q 219 181 225 192 q 194 169 214 169 q 189 170 192 169 q 181 174 186 171 q 167 188 169 179 q 167 204 164 196 q 179 222 171 214 q 201 228 188 231 z "},"<":{"ha":372,"x_min":85,"x_max":301,"o":"m 268 510 q 275 510 271 513 q 283 504 279 508 q 289 495 286 500 q 292 488 292 490 q 252 447 281 478 q 192 383 224 417 q 136 319 161 349 q 107 283 111 290 q 86 306 88 292 q 101 336 85 321 q 178 416 138 374 q 268 510 219 458 m 88 301 q 88 309 85 304 q 97 318 90 314 q 109 326 103 322 q 119 331 115 329 q 175 267 143 299 q 235 210 207 235 q 301 153 268 181 q 270 126 288 129 q 239 140 253 124 q 170 213 203 176 q 88 301 138 250 z "},">":{"ha":394,"x_min":99,"x_max":317,"o":"m 121 104 q 114 103 118 101 q 107 110 110 106 q 101 119 104 114 q 99 128 99 125 q 140 166 110 138 q 204 226 171 194 q 265 285 238 258 q 296 319 292 313 q 316 295 315 310 q 299 267 317 281 q 217 192 261 231 q 121 104 174 153 m 314 300 q 313 293 317 297 q 303 285 310 289 q 291 277 297 281 q 281 274 285 274 q 229 340 258 307 q 174 401 200 374 q 111 463 143 433 q 144 487 126 485 q 174 471 161 489 q 238 393 208 432 q 314 300 268 354 z "},"^":{"ha":890,"x_min":150,"x_max":743,"o":"m 449 -40 q 456 54 464 6 q 416 148 449 96 q 304 253 383 200 q 278 272 296 258 q 239 307 260 286 q 198 354 218 328 q 165 410 178 381 q 151 472 153 440 q 167 533 150 503 q 235 589 193 583 q 320 576 278 594 q 399 526 363 558 q 449 467 435 493 q 510 598 475 547 q 580 673 544 649 q 651 697 615 697 q 715 674 686 696 q 740 621 738 657 q 732 536 743 585 q 699 431 721 488 q 650 317 676 374 q 596 206 624 260 q 544 111 568 153 q 506 44 521 69 q 489 17 490 18 l 449 -40 m 269 542 q 224 526 242 542 q 204 496 207 511 q 203 419 190 463 q 250 343 215 375 q 291 306 271 322 q 331 276 311 290 q 424 192 379 239 q 489 94 469 146 q 591 278 547 190 q 660 436 635 365 q 692 556 686 507 q 678 621 697 604 q 653 636 667 629 q 629 643 640 643 q 550 590 589 643 q 479 438 511 538 l 453 367 l 431 433 q 422 449 429 435 q 397 482 414 464 q 351 516 379 500 q 279 538 322 532 q 269 542 275 542 z "},"":{"ha":186,"x_min":-192,"x_max":378,"o":"m -153 239 q -174 244 -164 236 q -192 267 -183 253 q -167 323 -189 279 q -112 431 -146 367 q -35 573 -78 494 q 53 733 8 651 q 141 892 97 814 q 219 1033 185 969 q 275 1138 253 1096 q 300 1192 297 1181 q 317 1201 306 1199 q 340 1203 328 1204 q 362 1197 351 1201 q 378 1186 372 1193 q 278 1024 333 1118 q 165 828 222 931 q 53 625 108 726 q -46 441 -1 524 q -119 303 -90 358 q -153 239 -147 249 z "},"[":{"ha":321,"x_min":94,"x_max":253,"o":"m 151 -40 q 201 -36 171 -37 q 253 -35 231 -35 l 243 -83 q 194 -90 225 -90 q 139 -87 163 -90 q 123 -87 132 -87 q 110 -83 114 -86 q 111 -22 111 -74 q 111 108 111 29 q 110 283 111 186 q 108 480 110 379 q 106 676 107 581 q 103 847 104 771 q 99 969 101 922 q 94 1019 97 1017 q 128 1021 113 1028 l 229 1024 q 239 997 235 1008 q 242 979 242 988 q 236 974 243 971 q 196 976 225 976 q 147 974 167 975 q 148 880 147 951 q 149 712 149 808 q 149 503 149 615 q 150 286 150 392 q 151 94 150 181 q 151 -40 151 7 z "},"]":{"ha":344,"x_min":88,"x_max":239,"o":"m 189 960 q 140 956 169 957 q 88 954 110 954 l 97 1003 q 147 1010 115 1010 q 201 1007 178 1010 q 217 1006 208 1007 q 231 1003 226 1006 q 229 942 229 993 q 228 815 229 892 q 228 642 228 738 q 228 447 228 546 q 230 255 229 349 q 232 87 231 161 q 235 -34 233 13 q 239 -83 236 -81 q 206 -85 221 -92 l 104 -87 q 94 -61 99 -72 q 91 -44 92 -51 q 97 -37 90 -36 q 138 -40 108 -40 q 186 -37 167 -39 q 186 55 186 -15 q 187 220 186 125 q 188 425 188 315 q 188 638 188 535 q 189 826 189 740 q 189 960 189 913 z "},"":{"ha":186,"x_min":49,"x_max":115,"o":"m 97 969 q 113 956 110 967 q 115 931 115 946 q 112 907 113 931 q 110 851 111 883 q 108 782 110 818 q 101 719 107 746 q 74 710 93 714 q 49 713 56 706 q 59 773 54 744 q 67 830 64 801 q 68 889 69 858 q 61 957 67 919 q 77 968 72 967 q 97 969 82 969 z "},"":{"ha":208,"x_min":69,"x_max":136,"o":"m 118 967 q 133 953 131 964 q 136 928 136 943 q 133 904 133 928 q 131 848 132 881 q 129 779 131 815 q 122 717 128 743 q 95 707 114 711 q 69 710 76 703 q 80 770 75 742 q 88 827 85 799 q 89 886 90 856 q 82 954 88 917 q 98 965 93 964 q 118 967 103 967 z "},"!":{"ha":350,"x_min":67,"x_max":232,"o":"m 225 67 q 231 49 231 56 q 229 37 232 43 q 221 24 226 31 q 210 6 215 17 q 165 2 181 -3 q 140 21 149 7 q 145 53 138 42 q 165 70 153 65 q 194 74 178 75 q 225 67 210 72 m 67 976 q 74 985 67 983 q 91 984 81 988 q 111 974 101 981 q 128 957 121 967 q 134 852 129 919 q 146 704 139 785 q 160 539 153 624 q 174 383 168 454 q 182 262 179 311 q 182 204 185 213 q 169 206 175 207 q 156 206 163 206 q 142 210 149 206 q 128 228 135 214 q 122 452 126 358 q 110 627 118 546 q 92 790 103 708 q 67 976 81 871 z "},"A":{"ha":578,"x_min":-42,"x_max":581,"o":"m 118 264 q 74 262 99 264 q 28 260 50 260 q -12 263 6 260 q -33 278 -29 267 q -33 294 -42 285 q -18 310 -25 303 q 28 314 8 313 q 64 317 47 315 q 96 322 81 319 q 128 326 111 324 q 167 475 149 404 q 201 615 185 546 q 234 756 218 685 q 268 904 250 826 q 289 923 281 922 q 317 922 297 924 q 329 847 325 878 q 337 785 333 817 q 345 716 340 754 q 358 619 350 678 q 374 502 364 560 q 390 383 383 444 q 460 395 426 389 q 519 406 493 401 q 560 414 544 411 q 576 415 576 417 q 563 391 581 403 q 518 367 546 379 q 458 345 490 356 q 401 326 426 335 q 411 260 404 300 q 426 176 418 221 q 442 87 433 132 q 456 5 450 42 q 465 -56 463 -32 q 465 -83 468 -81 q 431 -78 442 -86 q 406 -65 421 -71 q 378 122 394 26 q 351 311 361 217 q 270 292 319 304 q 168 272 221 281 q 153 204 160 242 q 139 133 146 167 q 127 72 132 99 q 118 36 122 44 q 94 27 111 29 q 65 36 76 25 q 72 74 65 44 q 86 140 78 104 q 103 210 94 176 q 118 264 113 244 m 185 332 q 231 341 206 336 q 277 351 256 346 q 315 360 299 357 q 333 365 331 364 q 328 416 331 396 q 324 458 326 436 q 319 510 322 481 q 311 592 317 540 q 295 722 300 679 q 286 750 290 765 q 252 620 267 675 q 226 519 238 565 q 204 428 214 472 q 185 332 194 383 z "},"a":{"ha":404,"x_min":-31,"x_max":432,"o":"m 296 408 q 290 374 294 400 q 279 312 285 347 q 269 238 274 276 q 265 164 265 199 q 269 105 264 129 q 285 75 274 81 q 350 85 317 60 q 428 164 383 111 q 428 153 432 164 q 417 128 425 142 q 402 102 410 115 q 390 85 394 89 q 358 53 379 71 q 314 26 338 36 q 269 17 290 15 q 233 42 247 18 q 225 83 226 58 q 225 132 224 107 q 229 178 226 157 q 233 208 232 199 q 167 106 204 154 q 93 29 129 57 q 26 -1 57 1 q -21 35 -4 -3 q -21 116 -31 71 q 8 197 -11 161 q 69 289 38 247 q 138 360 101 331 q 213 402 174 389 q 296 408 253 415 m 35 56 q 79 76 49 53 q 143 142 110 100 q 203 241 176 185 q 239 360 231 297 q 223 360 233 360 q 199 351 213 360 q 108 270 146 317 q 50 180 71 224 q 25 101 29 136 q 35 56 21 67 z "},"`":{"ha":1157,"x_min":0,"x_max":0,"o":""},"{":{"ha":325,"x_min":25,"x_max":332,"o":"m 218 -86 q 249 -108 235 -100 q 274 -122 263 -117 q 296 -131 286 -128 l 281 -144 q 260 -142 275 -144 q 223 -129 244 -140 q 176 -95 201 -118 q 125 -31 150 -72 q 106 28 107 -3 q 109 94 104 60 q 120 164 114 128 q 122 238 126 200 q 95 317 117 276 q 25 397 74 357 q 99 470 78 436 q 124 537 121 504 q 119 601 128 569 q 103 664 111 632 q 95 730 96 696 q 114 803 94 764 q 163 871 135 839 q 215 926 190 903 q 276 975 244 953 q 307 969 294 972 q 325 964 318 967 q 325 957 332 961 q 217 873 256 913 q 163 797 179 833 q 148 725 147 760 q 156 658 149 690 q 170 593 163 625 q 176 529 178 561 q 157 465 174 497 q 99 397 140 432 q 158 299 144 344 q 169 210 171 253 q 157 131 167 168 q 145 56 147 93 q 157 -15 143 19 q 218 -86 171 -50 z "},"}":{"ha":296,"x_min":-40,"x_max":254,"o":"m 39 907 q 7 927 21 919 q -18 939 -7 935 q -40 947 -31 944 l -26 961 q -6 960 -21 961 q 32 949 10 958 q 81 917 54 939 q 135 856 107 896 q 157 797 154 829 q 156 731 160 765 q 149 660 153 697 q 151 585 144 624 q 180 508 157 547 q 254 432 203 469 q 184 356 204 392 q 162 288 164 321 q 169 224 160 256 q 188 162 179 193 q 199 96 197 131 q 185 22 201 61 q 139 -49 165 -15 q 89 -106 113 -82 q 31 -157 61 -133 q 0 -153 13 -156 q -19 -148 -11 -150 q -19 -140 -26 -146 q 84 -51 49 -93 q 134 28 119 -10 q 147 99 149 65 q 136 166 144 133 q 119 230 128 199 q 110 293 110 261 q 125 359 110 325 q 181 429 140 393 q 117 525 132 479 q 101 613 101 571 q 110 693 101 654 q 119 768 118 732 q 103 839 119 804 q 39 907 88 874 z "},"":{"ha":411,"x_min":42,"x_max":379,"o":"m 240 588 q 229 574 242 581 q 198 553 217 567 q 157 519 179 540 q 117 461 135 497 q 90 392 97 421 q 93 325 82 364 q 103 310 97 317 q 122 303 110 304 q 206 335 174 311 q 275 388 239 358 q 317 429 301 411 q 344 460 333 447 q 363 477 356 472 q 379 481 371 482 q 353 438 375 471 q 297 366 332 404 q 217 295 263 328 q 117 254 171 263 q 82 260 96 257 q 57 286 68 263 q 46 356 42 315 q 64 438 50 397 q 99 513 78 478 q 140 564 119 547 q 192 588 168 583 q 240 588 217 592 m 197 124 q 191 119 197 119 q 176 119 185 118 q 160 121 168 119 q 149 124 153 122 q 149 181 149 135 q 149 288 150 226 q 148 417 149 349 q 146 545 147 486 q 142 644 144 604 q 136 688 139 683 q 176 686 161 694 q 190 658 192 678 q 191 606 190 643 q 192 517 192 568 q 194 410 193 467 q 195 298 194 353 q 197 197 196 243 q 197 124 197 151 z "}}}
